<svg width="200" height="126" viewBox="0 0 200 126" fill="none" xmlns="http://www.w3.org/2000/svg">
<path fill-rule="evenodd" clip-rule="evenodd" d="M19.1603 3.92157H181.216C189.351 3.92157 195.949 10.5044 195.949 18.6276V106.865C195.949 114.986 189.352 121.569 181.216 121.569H19.1603C11.0247 121.569 4.42822 114.984 4.42822 106.865V18.6276C4.42822 10.5031 11.0247 3.92157 19.1603 3.92157Z" fill="white" stroke="#E1E1E1" stroke-miterlimit="10"/>
<path fill-rule="evenodd" clip-rule="evenodd" d="M132.125 42.8592C131.735 45.9988 131.219 49.0137 130.578 51.9043C127.889 51.0302 124.788 49.6267 120.408 49.9196C117.795 50.0961 114.703 51.0973 114.663 53.449C114.616 56.0565 118.907 57.6063 121.293 58.7443C125.597 60.802 130.216 63.5408 130.578 69.118C130.853 73.4039 128.862 77.1306 126.6 79.2686C120.575 84.9514 107.207 85.5533 98.0835 81.9173C98.6525 78.8788 99.1682 75.7898 99.6317 72.649C103.164 74.1482 108.015 76.1729 113.335 75.5188C115.758 75.2192 118.727 73.809 118.642 71.3275C118.535 68.2973 112.873 66.4969 110.019 64.9279C106.703 63.1028 102.93 60.0702 102.725 55.4392C102.585 52.3533 103.791 49.4639 105.378 47.4953C110.087 41.6486 122.196 39.5718 132.125 42.8592Z" fill="#3A57A6"/>
<path fill-rule="evenodd" clip-rule="evenodd" d="M79.4458 83.5506L86.3772 42.0616H97.7207L90.7893 83.5506H79.4458Z" fill="#3A57A6"/>
<path fill-rule="evenodd" clip-rule="evenodd" d="M69.9627 41.9768C66.0529 51.1643 62.7176 60.9278 58.6902 69.9988L57.5082 64.5557C57.5043 64.5365 57.4933 64.5106 57.489 64.4914L57.689 65.4584C56.8149 62.5941 55.3263 59.8921 53.4247 57.4161C53.3741 57.3518 53.3251 57.2874 53.2745 57.2231C52.9408 56.7976 52.5874 56.3847 52.2306 55.9702C52.0129 55.7184 51.7929 55.4682 51.5671 55.2165C48.8216 52.2192 45.4918 49.631 41.9761 47.5788L52.0596 83.4588H64.2169C69.9396 69.4588 76.1161 55.9141 81.9 41.9753C77.9204 41.9768 73.9423 41.9768 69.9627 41.9768Z" fill="#3A57A6"/>
<path fill-rule="evenodd" clip-rule="evenodd" d="M48.5534 41.9835H30.0103V42.8867C40.6848 44.9647 54.1609 53.9031 57.6891 65.46L53.7095 46.1369C53.1652 43.1572 51.0872 41.9835 48.5534 41.9835Z" fill="#F7971D"/>
<path fill-rule="evenodd" clip-rule="evenodd" d="M170.365 83.6792C166.902 83.6792 163.438 83.6792 159.976 83.6792C159.303 81.7024 159.116 79.2412 158.429 77.2796C153.713 77.2796 148.996 77.2796 144.281 77.2796L141.63 83.6792C137.649 83.6792 133.671 83.6792 129.691 83.6792L145.165 48.1549C145.849 46.5953 147.077 44.4678 147.596 43.52C148.384 42.0847 151.425 41.9769 152.715 41.9769H161.299L170.365 83.6792ZM153.153 53.4694L147.375 68.8949H156.716L153.153 53.4694Z" fill="#3A57A6"/>
</svg>
