<svg width="100" height="100" viewBox="0 0 100 100" fill="none" xmlns="http://www.w3.org/2000/svg">
<path fill-rule="evenodd" clip-rule="evenodd" d="M21.7749 34.0146C13.8997 32.1305 8.06494 25.3421 8.06494 17.2683C8.06494 7.73618 16.1941 0 26.2104 0C36.2267 0 44.3559 7.73618 44.3559 17.2683C44.3559 25.3421 38.5171 32.1305 30.646 34.0146V62.5687H21.7749V34.0146Z" fill="#DADADA"/>
<path fill-rule="evenodd" clip-rule="evenodd" d="M100 74.676C100 70.017 96.0238 66.2334 91.1276 66.2334H8.86835C3.97211 66.2334 0 70.017 0 74.676V91.5574C0 96.2202 3.97211 100 8.86835 100H91.1276C96.0238 100 100 96.2202 100 91.5574V74.676Z" fill="#DADADA"/>
<path fill-rule="evenodd" clip-rule="evenodd" d="M80.7444 49.7703C82.4702 49.7703 83.8735 51.1057 83.8735 52.7481V62.3953H47.5825V52.7481C47.5825 51.1057 48.9817 49.7703 50.7076 49.7703H80.7444Z" fill="#F34144"/>
</svg>
