<svg width="100" height="100" viewBox="0 0 100 100" fill="none" xmlns="http://www.w3.org/2000/svg">
<path d="M91.6668 61.9167V61.7083C91.6164 60.9037 91.4767 60.1071 91.2502 59.3333L84.4168 18.7917C83.9287 15.8415 82.3991 13.164 80.1057 11.2452C77.8122 9.32633 74.9069 8.29323 71.9168 8.33334H27.8752C24.9209 8.34291 22.0654 9.39855 19.8154 11.313C17.5653 13.2275 16.066 15.877 15.5835 18.7917L8.8335 59.25C8.607 60.0238 8.46725 60.8203 8.41683 61.625V61.8333C8.3335 62.125 8.3335 62.5 8.3335 62.5V79.1667C8.3335 82.4819 9.65046 85.6613 11.9947 88.0055C14.3389 90.3497 17.5183 91.6667 20.8335 91.6667H79.1668C82.482 91.6667 85.6615 90.3497 88.0057 88.0055C90.3499 85.6613 91.6668 82.4819 91.6668 79.1667V62.5C91.6668 62.5 91.6668 62.125 91.6668 61.9167ZM23.7918 20.125C23.9605 19.1467 24.4729 18.2608 25.2368 17.6267C26.0007 16.9927 26.9659 16.6522 27.9585 16.6667H72.1252C73.1178 16.6522 74.083 16.9927 74.8469 17.6267C75.6108 18.2608 76.1232 19.1467 76.2918 20.125L81.2918 50.2083C80.592 50.0699 79.8803 50.0001 79.1668 50H20.8335C20.1479 50.0054 19.4644 50.0752 18.7918 50.2083L23.7918 20.125ZM83.3335 79.1667C83.3335 80.2718 82.8945 81.3316 82.1131 82.113C81.3317 82.8944 80.2719 83.3333 79.1668 83.3333H20.8335C19.7284 83.3333 18.6686 82.8944 17.8872 82.113C17.1058 81.3316 16.6668 80.2718 16.6668 79.1667V62.8333L17.0002 60.9167C17.3127 60.1558 17.8436 59.5044 18.5257 59.0447C19.2079 58.585 20.0109 58.3374 20.8335 58.3333H79.1668C79.9894 58.3374 80.7924 58.585 81.4746 59.0447C82.1568 59.5044 82.6876 60.1558 83.0002 60.9167L83.3335 62.8333V79.1667ZM70.8335 66.6667C70.0094 66.6667 69.2038 66.911 68.5186 67.3689C67.8334 67.8267 67.2994 68.4775 66.984 69.2388C66.6686 70.0002 66.5861 70.838 66.7469 71.6462C66.9077 72.4545 67.3045 73.1969 67.8872 73.7796C68.4699 74.3623 69.2124 74.7592 70.0206 74.9199C70.8289 75.0807 71.6667 74.9982 72.428 74.6828C73.1894 74.3675 73.8401 73.8334 74.298 73.1482C74.7558 72.463 75.0002 71.6574 75.0002 70.8333C75.0002 69.7283 74.5612 68.6685 73.7798 67.8871C72.9984 67.1057 71.9386 66.6667 70.8335 66.6667Z" fill="black"/>
</svg>
