<svg width="100" height="62" viewBox="0 0 100 62" fill="none" xmlns="http://www.w3.org/2000/svg">
<path d="M7.73024 1.28125H90.6518C94.814 1.28125 98.1914 4.6385 98.1914 8.78134V53.7826C98.1914 57.924 94.816 61.2812 90.6518 61.2812H7.73024C3.56744 61.2812 0.191406 57.9234 0.191406 53.7826V8.78134C0.192106 4.6378 3.56744 1.28125 7.73024 1.28125Z" fill="white"/>
<path d="M43.7931 2.70117H37.6221V38.4744H43.7931V2.70117ZM2.14136 8.88073V53.6818C2.14136 56.5568 4.11236 58.9534 6.76946 59.6428V2.91899C4.11236 3.60841 2.14136 6.00443 2.14136 8.88073ZM36.0795 2.70117H32.9941V38.4744H36.0795V2.70117ZM16.025 59.8614H17.5677V2.70117H16.025V59.8614ZM29.9087 2.70117H26.8233V38.4744H29.9087V2.70117ZM9.85488 59.8614H14.483V2.70117H9.85488V59.8614ZM51.5051 2.70117H46.8771V38.4744H51.5051V2.70117ZM25.2813 2.70117H20.6531V38.4744H25.2813V2.70117ZM88.5295 59.8614H90.0715V2.70117H88.5295V59.8614ZM82.3587 59.8614H86.9861V2.70117H82.3587V59.8614ZM73.1017 38.4744H79.2733V2.70117H73.1017V38.4744ZM93.1563 3.55845V59.0048C94.9929 57.9342 96.2417 55.9632 96.2417 53.6824V8.88073C96.2417 6.59861 94.9937 4.62823 93.1563 3.55845ZM62.3041 2.70117H57.6747V38.4744H62.3041V2.70117ZM54.5907 2.70117H53.0485V38.4744H54.5907V2.70117ZM66.9315 2.70117H63.8461V38.4744H66.9315V2.70117ZM71.5597 2.70117H68.4743V38.4744H71.5597V2.70117ZM59.4483 46.82H62.1377V54.4218H64.2563V46.82H66.9471V45.0002H59.4483V46.82ZM72.6795 44.7844C71.2751 44.7844 70.0929 45.25 69.1341 46.1792C68.1741 47.1092 67.6941 48.2682 67.6941 49.6504C67.6941 51.0346 68.1741 52.191 69.1341 53.1236C70.0941 54.0528 71.2751 54.5184 72.6795 54.5184C74.0839 54.5184 75.2653 54.0528 76.2247 53.1236C77.1847 52.1924 77.6653 51.0346 77.6653 49.6504C77.6653 48.2682 77.1833 47.1106 76.2247 46.1792C75.2653 45.25 74.0839 44.7844 72.6795 44.7844ZM74.6907 51.8006C74.1457 52.3902 73.4783 52.684 72.6861 52.684C71.8941 52.684 71.2267 52.3902 70.6829 51.8006C70.1399 51.2124 69.8673 50.4984 69.8673 49.6578C69.8673 48.8172 70.1399 48.1004 70.6829 47.5068C71.2273 46.9126 71.8947 46.617 72.6861 46.617C73.4797 46.617 74.1469 46.9126 74.6907 47.5068C75.2339 48.1004 75.5051 48.8172 75.5051 49.6578C75.5051 50.4984 75.2339 51.2124 74.6907 51.8006ZM28.7049 49.5292C28.8681 49.4586 28.9815 49.4052 29.0447 49.3754C29.1077 49.3446 29.2213 49.2648 29.3843 49.1396C29.8643 48.7792 30.1041 48.2316 30.1041 47.4936C30.1041 46.8834 29.8919 46.3358 29.4655 45.8502C29.2299 45.5884 28.8789 45.3832 28.4129 45.2294C27.9471 45.0756 27.3919 44.9996 26.7487 44.9996H23.0537V54.4218H27.2107C28.5151 54.4218 29.4301 54.13 29.9549 53.5466C30.4075 53.043 30.6343 52.4642 30.6343 51.8074C30.6343 51.2138 30.4599 50.7182 30.1115 50.3198C29.7629 49.9182 29.2937 49.655 28.7049 49.5292ZM25.1731 46.7788H26.1923C26.8173 46.7788 27.2609 46.8468 27.5235 46.982C27.7859 47.1172 27.9169 47.393 27.9169 47.8106C27.9169 48.2282 27.7745 48.5014 27.4893 48.6272C27.2039 48.7524 26.7669 48.8152 26.1781 48.8152H25.1731V46.7788ZM27.9921 52.4208C27.6887 52.5694 27.2335 52.642 26.6265 52.642H25.1731V50.4718H26.4225C27.1293 50.4718 27.6429 50.5416 27.9645 50.681C28.2861 50.8202 28.4465 51.1078 28.4465 51.5436C28.4465 51.9786 28.2955 52.273 27.9921 52.4208ZM53.4709 50.6076H57.7231V48.8152H53.4709V46.874H58.1989V45.0002H51.3507V54.4218H58.3473V52.5614H53.4709V50.6076ZM45.7547 45.0002H43.6353V54.4218H49.8033V52.548H45.7553L45.7547 45.0002ZM36.8569 44.7844C35.4531 44.7844 34.2709 45.25 33.3109 46.1792C32.3509 47.1092 31.8709 48.2682 31.8709 49.6504C31.8709 51.0346 32.3509 52.191 33.3109 53.1236C34.2709 54.0528 35.4525 54.5184 36.8569 54.5184C38.2599 54.5184 39.4421 54.0528 40.4021 53.1236C41.3621 52.1924 41.8421 51.0346 41.8421 49.6504C41.8421 48.2682 41.3621 47.1106 40.4021 46.1792C39.4421 45.25 38.2599 44.7844 36.8569 44.7844ZM38.8669 51.8006C38.3237 52.3902 37.6551 52.684 36.8629 52.684C36.0707 52.684 35.4027 52.3902 34.8591 51.8006C34.3159 51.2124 34.0441 50.4984 34.0441 49.6578C34.0441 48.8172 34.3159 48.1004 34.8591 47.5068C35.4027 46.9126 36.0707 46.617 36.8629 46.617C37.6551 46.617 38.3237 46.9126 38.8669 47.5068C39.4107 48.1004 39.6825 48.8172 39.6825 49.6578C39.6825 50.4984 39.4107 51.2124 38.8669 51.8006Z" fill="black"/>
</svg>
