<svg width="100" height="100" viewBox="0 0 100 100" fill="none" xmlns="http://www.w3.org/2000/svg">
<path fill-rule="evenodd" clip-rule="evenodd" d="M51.5151 100C78.2926 100 100 78.2926 100 51.5151C100 24.7377 78.2926 3.03027 51.5151 3.03027C24.7377 3.03027 3.03027 24.7377 3.03027 51.5151C3.03027 78.2926 24.7377 100 51.5151 100Z" fill="#CED1D4"/>
<path fill-rule="evenodd" clip-rule="evenodd" d="M48.4849 96.9697C75.2623 96.9697 96.9697 75.2623 96.9697 48.4849C96.9697 21.7074 75.2623 0 48.4849 0C21.7074 0 0 21.7074 0 48.4849C0 75.2623 21.7074 96.9697 48.4849 96.9697Z" fill="#060708"/>
<path fill-rule="evenodd" clip-rule="evenodd" d="M48.4839 93.941C73.5878 93.941 93.9386 73.5903 93.9386 48.4864C93.9386 23.3825 73.5878 3.03174 48.4839 3.03174C23.38 3.03174 3.0293 23.3825 3.0293 48.4864C3.0293 73.5903 23.38 93.941 48.4839 93.941Z" fill="#323337"/>
<path d="M71 53.5H68.5V36C68.5 34.0109 67.7098 32.1032 66.3033 30.6967C64.8968 29.2902 62.9891 28.5 61 28.5H36C34.0109 28.5 32.1032 29.2902 30.6967 30.6967C29.2902 32.1032 28.5 34.0109 28.5 36V53.5H26C25.337 53.5 24.7011 53.7634 24.2322 54.2322C23.7634 54.7011 23.5 55.337 23.5 56V61C23.5 62.9891 24.2902 64.8968 25.6967 66.3033C27.1032 67.7098 29.0109 68.5 31 68.5H66C67.9891 68.5 69.8968 67.7098 71.3033 66.3033C72.7098 64.8968 73.5 62.9891 73.5 61V56C73.5 55.337 73.2366 54.7011 72.7678 54.2322C72.2989 53.7634 71.6631 53.5 71 53.5ZM33.5 36C33.5 35.337 33.7634 34.7011 34.2322 34.2322C34.7011 33.7634 35.337 33.5 36 33.5H61C61.6631 33.5 62.2989 33.7634 62.7678 34.2322C63.2366 34.7011 63.5 35.337 63.5 36V53.5H33.5V36ZM68.5 61C68.5 61.663 68.2366 62.2989 67.7678 62.7678C67.2989 63.2366 66.6631 63.5 66 63.5H31C30.337 63.5 29.7011 63.2366 29.2322 62.7678C28.7634 62.2989 28.5 61.663 28.5 61V58.5H68.5V61Z" fill="white"/>
<path fill-rule="evenodd" clip-rule="evenodd" d="M27.0505 16.8891C28.3059 16.8891 29.3236 15.8717 29.3236 14.6167C29.3236 13.3616 28.3059 12.3442 27.0505 12.3442C25.7951 12.3442 24.7773 13.3616 24.7773 14.6167C24.7773 15.8717 25.7951 16.8891 27.0505 16.8891Z" fill="white"/>
<path d="M21.6731 17.4438C23.8549 17.5665 24.4004 20.1286 21.9458 22.4635C18.6428 25.671 16.1731 29.6771 14.461 33.8892C14.461 33.8892 13.9307 34.8786 13.0519 35.1528C11.3246 35.6968 9.56707 33.8983 10.4913 31.5529C12.6277 26.2544 15.8549 21.2968 20.264 17.8847C20.6731 17.5938 20.9155 17.4377 21.6731 17.4438Z" fill="white"/>
</svg>
