<svg width="201" height="201" viewBox="0 0 201 201" fill="none" xmlns="http://www.w3.org/2000/svg">
<path fill-rule="evenodd" clip-rule="evenodd" d="M103.488 200.103C157.043 200.103 200.458 156.688 200.458 103.133C200.458 49.5782 157.043 6.16339 103.488 6.16339C49.9334 6.16339 6.51855 49.5782 6.51855 103.133C6.51855 156.688 49.9334 200.103 103.488 200.103Z" fill="#C9D7E9"/>
<path fill-rule="evenodd" clip-rule="evenodd" d="M97.4277 194.042C150.983 194.042 194.397 150.627 194.397 97.0725C194.397 43.5176 150.983 0.102783 97.4277 0.102783C43.8728 0.102783 0.458008 43.5176 0.458008 97.0725C0.458008 150.627 43.8728 194.042 97.4277 194.042Z" fill="#012657"/>
<path fill-rule="evenodd" clip-rule="evenodd" d="M97.4263 187.985C147.634 187.985 188.336 147.283 188.336 97.0756C188.336 46.8678 147.634 6.16632 97.4263 6.16632C47.2185 6.16632 6.51709 46.8678 6.51709 97.0756C6.51709 147.283 47.2185 187.985 97.4263 187.985Z" fill="#003D91"/>
<path fill-rule="evenodd" clip-rule="evenodd" d="M85.3198 54.6507L85.3198 133.814L102.217 139.499V73.0992C102.217 69.9901 103.532 67.9113 105.629 68.6326C108.393 69.4416 108.932 72.3113 108.932 75.4204V101.939C119.456 107.323 127.744 101.936 127.744 87.6962C127.744 73.0992 122.896 66.6204 108.586 61.4144C102.965 59.4053 92.4986 56.0598 85.3198 54.6507" fill="white"/>
<path fill-rule="evenodd" clip-rule="evenodd" d="M106.532 129.454L134.08 119.502C137.195 118.372 137.68 116.772 135.147 115.929C132.607 115.087 128.007 115.333 124.883 116.466L106.532 123.014V112.584L107.589 112.223C107.589 112.223 112.895 110.323 120.353 109.49C127.811 108.654 136.944 109.596 144.11 112.351C152.192 114.945 153.101 118.754 151.053 121.378C148.995 124.002 143.962 125.878 143.962 125.878L106.532 139.499V129.454" fill="white"/>
<path fill-rule="evenodd" clip-rule="evenodd" d="M51.5443 124.408C42.4595 121.972 40.9444 116.89 45.0777 113.966C48.914 111.26 55.411 109.217 55.411 109.217L82.2898 100.105V110.49L62.9504 117.099C59.5292 118.275 59.008 119.92 61.7807 120.793C64.5625 121.663 69.5928 121.414 73.011 120.239L82.2898 117.036V126.329C81.6989 126.433 81.0413 126.529 80.4383 126.626C71.1534 128.075 61.2746 127.475 51.5443 124.408" fill="white"/>
<g opacity="0.5">
<path fill-rule="evenodd" clip-rule="evenodd" d="M54.559 33.8811C57.0698 33.8811 59.1053 31.8463 59.1053 29.3362C59.1053 26.8261 57.0698 24.7913 54.559 24.7913C52.0481 24.7913 50.0127 26.8261 50.0127 29.3362C50.0127 31.8463 52.0481 33.8811 54.559 33.8811Z" fill="white"/>
<path d="M43.8042 34.9902C48.1679 35.2357 49.2588 40.3599 44.3497 45.0296C37.7436 51.4447 32.8043 59.4569 29.38 67.8811C29.38 67.8811 28.3194 69.8599 26.5618 70.4084C23.1073 71.4962 19.5921 67.8993 21.4406 63.2084C25.7134 52.6114 32.1679 42.6963 40.9861 35.872C41.8042 35.2902 42.2891 34.9781 43.8042 34.9902Z" fill="white"/>
</g>
</svg>
