<svg width="100" height="63" viewBox="0 0 100 63" fill="none" xmlns="http://www.w3.org/2000/svg">
<path d="M9.60986 1.96069H90.7576C94.7978 1.96069 98.1533 5.24769 98.1533 9.35644V53.457C98.1533 57.4972 94.8663 60.7842 90.7576 60.7842H9.60986C5.56958 60.7842 2.21411 57.4972 2.21411 53.457V9.28795C2.2826 5.24769 5.56958 1.96069 9.60986 1.96069Z" fill="white" stroke="#E1E1E1" stroke-miterlimit="10"/>
<path d="M57.9562 17.3687H42.343V45.3766H57.9562V17.3687Z" fill="#EB621D"/>
<path d="M43.4386 31.3383C43.4386 25.723 46.1091 20.5871 50.218 17.4371C47.2048 15.0404 43.3699 13.6023 39.2613 13.6023C29.4003 13.6023 21.4568 21.6144 21.4568 31.4069C21.4568 41.1993 29.4687 49.2114 39.2613 49.2114C43.3699 49.2114 47.2733 47.7734 50.218 45.3765C46.0407 42.0897 43.4386 37.0222 43.4386 31.3383Z" fill="#E41222"/>
<path d="M78.9792 31.3381C78.9792 41.1991 70.967 49.1428 61.1747 49.1428C57.0659 49.1428 53.1625 47.7046 50.218 45.3079C54.3266 42.0209 56.9974 37.022 56.9974 31.4068C56.9974 25.7915 54.3266 20.6554 50.218 17.5054C53.231 15.1087 57.0659 13.6706 61.1747 13.6706C70.967 13.6021 78.9792 21.5458 78.9792 31.3381Z" fill="#F59E1F"/>
</svg>
