<svg width="100" height="100" viewBox="0 0 100 100" fill="none" xmlns="http://www.w3.org/2000/svg">
<path fill-rule="evenodd" clip-rule="evenodd" d="M51.5151 100C78.2926 100 100 78.2926 100 51.5151C100 24.7377 78.2926 3.03027 51.5151 3.03027C24.7377 3.03027 3.03027 24.7377 3.03027 51.5151C3.03027 78.2926 24.7377 100 51.5151 100Z" fill="#E2ECCA"/>
<path fill-rule="evenodd" clip-rule="evenodd" d="M48.4848 96.9697C75.2623 96.9697 96.9697 75.2623 96.9697 48.4848C96.9697 21.7074 75.2623 0 48.4848 0C21.7074 0 0 21.7074 0 48.4848C0 75.2623 21.7074 96.9697 48.4848 96.9697Z" fill="#466301"/>
<path fill-rule="evenodd" clip-rule="evenodd" d="M48.4842 93.941C73.5881 93.941 93.9388 73.5903 93.9388 48.4864C93.9388 23.3825 73.5881 3.03174 48.4842 3.03174C23.3803 3.03174 3.02954 23.3825 3.02954 48.4864C3.02954 73.5903 23.3803 93.941 48.4842 93.941Z" fill="#7EB900"/>
<path fill-rule="evenodd" clip-rule="evenodd" d="M42.2049 74.8918C35.6443 73.2145 28.3292 68.516 28.3292 65.9796C28.3292 62.5842 35.7534 53.0797 43.8928 46.0584L48.4716 42.1069L50.5246 43.5372C53.7504 45.7842 64.0716 56.4751 66.3807 59.9615C70.1276 65.6175 69.961 66.8781 64.9897 70.4554C58.9958 74.7705 49.1943 76.6781 42.2049 74.8918ZM25.2218 63.2086C20.9445 56.9253 19.5703 46.5799 22.1203 39.8632C23.7006 35.7041 27.4248 30.039 29.4536 28.7102C30.9188 27.7496 31.2006 27.7602 33.2157 28.845C34.4142 29.4905 36.9157 31.3814 38.7748 33.0466L42.1536 36.0723L38.5354 40.5556C31.2627 49.5617 25.6612 60.8026 26.746 64.2162C27.2915 65.9389 26.9082 65.6859 25.2218 63.2086ZM70.4807 63.0129C70.4079 57.7584 66.2958 49.819 58.8519 40.5614L55.2534 36.0857L58.4807 33.1251C60.2549 31.4963 62.7761 29.5902 64.0837 28.8902L66.461 27.6175L69.0943 30.1842C70.5413 31.5963 72.6564 34.6342 73.7928 36.9372C75.5716 40.5433 75.8882 41.9448 76.0807 47.0705C76.3367 53.9448 75.2913 58.3826 72.3913 62.7129L70.5155 65.5175L70.4807 63.0129V63.0129ZM45.478 28.8404C44.0614 28.0025 41.0871 26.8252 38.8674 26.2237C36.6477 25.6237 34.9629 24.9207 35.122 24.6616C35.2826 24.404 37.4659 23.5328 39.9765 22.7253C46.5477 20.6116 54.3235 21.0783 60.1189 23.9313C62.3735 25.0404 63.6098 25.801 62.8674 25.6207C61.2113 25.2192 53.9962 27.404 51.1083 29.1828C48.5735 30.7449 48.7068 30.7525 45.478 28.8404Z" fill="white"/>
<g opacity="0.5">
<path fill-rule="evenodd" clip-rule="evenodd" d="M27.0507 16.8891C28.3062 16.8891 29.3239 15.8717 29.3239 14.6167C29.3239 13.3616 28.3062 12.3442 27.0507 12.3442C25.7953 12.3442 24.7776 13.3616 24.7776 14.6167C24.7776 15.8717 25.7953 16.8891 27.0507 16.8891Z" fill="white"/>
<path d="M21.6733 17.4435C23.8551 17.5663 24.4005 20.1284 21.946 22.4632C18.643 25.6708 16.1733 29.6799 14.4611 33.8875C14.4611 33.8875 13.9308 34.8784 13.0672 35.1511C11.3248 35.6981 9.56721 33.9041 10.4914 31.5526C12.6278 26.2511 15.8551 21.2966 20.2642 17.8844C20.6733 17.5935 20.9157 17.4375 21.6733 17.4435Z" fill="white"/>
</g>
</svg>
