<svg width="100" height="100" viewBox="0 0 100 100" fill="none" xmlns="http://www.w3.org/2000/svg">
<path d="M87.5002 58.3333H83.3335V29.1667C83.3335 25.8514 82.0165 22.672 79.6723 20.3278C77.3281 17.9836 74.1487 16.6667 70.8335 16.6667H29.1668C25.8516 16.6667 22.6722 17.9836 20.328 20.3278C17.9838 22.672 16.6668 25.8514 16.6668 29.1667V58.3333H12.5002C11.3951 58.3333 10.3353 58.7723 9.55388 59.5537C8.77248 60.3351 8.3335 61.3949 8.3335 62.5V70.8333C8.3335 74.1485 9.65046 77.3279 11.9947 79.6721C14.3389 82.0164 17.5183 83.3333 20.8335 83.3333H79.1668C82.482 83.3333 85.6615 82.0164 88.0057 79.6721C90.3499 77.3279 91.6668 74.1485 91.6668 70.8333V62.5C91.6668 61.3949 91.2279 60.3351 90.4465 59.5537C89.665 58.7723 88.6052 58.3333 87.5002 58.3333ZM25.0002 29.1667C25.0002 28.0616 25.4392 27.0018 26.2206 26.2204C27.002 25.439 28.0618 25 29.1668 25H70.8335C71.9386 25 72.9984 25.439 73.7798 26.2204C74.5612 27.0018 75.0002 28.0616 75.0002 29.1667V58.3333H25.0002V29.1667ZM83.3335 70.8333C83.3335 71.9384 82.8945 72.9982 82.1131 73.7796C81.3317 74.561 80.2719 75 79.1668 75H20.8335C19.7284 75 18.6686 74.561 17.8872 73.7796C17.1058 72.9982 16.6668 71.9384 16.6668 70.8333V66.6666H83.3335V70.8333Z" fill="black"/>
</svg>
