<svg width="100" height="100" viewBox="0 0 100 100" fill="none" xmlns="http://www.w3.org/2000/svg">
<path d="M87.7915 70.125L79.1665 61.2917C77.3112 59.5281 74.971 58.3597 72.4465 57.9364C69.9221 57.5132 67.3287 57.8546 64.9998 58.9167L61.2498 55.1667C65.6688 49.2622 67.6869 41.9028 66.8979 34.5701C66.1089 27.2375 62.5714 20.4759 56.9974 15.6467C51.4235 10.8174 44.227 8.27899 36.8567 8.54244C29.4864 8.80588 22.4896 11.8516 17.2747 17.0665C12.0598 22.2814 9.01401 29.2783 8.75057 36.6486C8.48712 44.0189 11.0255 51.2154 15.8548 56.7893C20.6841 62.3632 27.4456 65.9008 34.7783 66.6898C42.111 67.4788 49.4703 65.4606 55.3748 61.0417L59.0831 64.75C57.896 67.0818 57.4706 69.7274 57.8667 72.3138C58.2629 74.9002 59.4608 77.2971 61.2915 79.1667L70.1248 88C72.4686 90.3408 75.6456 91.6557 78.9581 91.6557C82.2707 91.6557 85.4477 90.3408 87.7915 88C88.982 86.8359 89.928 85.4456 90.5739 83.9108C91.2197 82.376 91.5524 80.7276 91.5524 79.0625C91.5524 77.3974 91.2197 75.749 90.5739 74.2142C89.928 72.6794 88.982 71.2891 87.7915 70.125V70.125ZM52.4581 52.4583C49.5424 55.3667 45.8302 57.3456 41.7904 58.1452C37.7506 58.9448 33.5644 58.5292 29.7606 56.9508C25.9569 55.3724 22.7063 52.7021 20.4194 49.2772C18.1326 45.8524 16.912 41.8265 16.912 37.7083C16.912 33.5901 18.1326 29.5643 20.4194 26.1394C22.7063 22.7145 25.9569 20.0443 29.7606 18.4659C33.5644 16.8875 37.7506 16.4719 41.7904 17.2715C45.8302 18.0711 49.5424 20.05 52.4581 22.9583C54.3983 24.8936 55.9376 27.1926 56.9878 29.7236C58.0381 32.2546 58.5787 34.968 58.5787 37.7083C58.5787 40.4486 58.0381 43.162 56.9878 45.6931C55.9376 48.2241 54.3983 50.5231 52.4581 52.4583V52.4583ZM81.9165 81.9167C81.5291 82.3072 81.0683 82.6172 80.5605 82.8287C80.0528 83.0402 79.5082 83.1492 78.9581 83.1492C78.4081 83.1492 77.8635 83.0402 77.3557 82.8287C76.848 82.6172 76.3871 82.3072 75.9998 81.9167L67.1665 73.0833C66.7759 72.696 66.466 72.2351 66.2544 71.7274C66.0429 71.2197 65.934 70.675 65.934 70.125C65.934 69.5749 66.0429 69.0303 66.2544 68.5226C66.466 68.0148 66.7759 67.554 67.1665 67.1667C67.5538 66.7761 68.0147 66.4662 68.5224 66.2546C69.0301 66.0431 69.5748 65.9342 70.1248 65.9342C70.6749 65.9342 71.2195 66.0431 71.7272 66.2546C72.235 66.4662 72.6958 66.7761 73.0831 67.1667L81.9165 76C82.307 76.3873 82.617 76.8482 82.8285 77.3559C83.0401 77.8637 83.149 78.4083 83.149 78.9583C83.149 79.5084 83.0401 80.053 82.8285 80.5607C82.617 81.0685 82.307 81.5293 81.9165 81.9167V81.9167Z" fill="black"/>
</svg>
