<svg width="200" height="200" viewBox="0 0 200 200" fill="none" xmlns="http://www.w3.org/2000/svg">
<path d="M158.333 33.3333H41.6666C35.0362 33.3333 28.6774 35.9673 23.989 40.6557C19.3005 45.3441 16.6666 51.7029 16.6666 58.3333V141.667C16.6666 148.297 19.3005 154.656 23.989 159.344C28.6774 164.033 35.0362 166.667 41.6666 166.667H158.333C164.964 166.667 171.323 164.033 176.011 159.344C180.699 154.656 183.333 148.297 183.333 141.667V58.3333C183.333 51.7029 180.699 45.3441 176.011 40.6557C171.323 35.9673 164.964 33.3333 158.333 33.3333V33.3333ZM41.6666 50H158.333C160.543 50 162.663 50.878 164.226 52.4408C165.789 54.0036 166.667 56.1232 166.667 58.3333L100 99L33.3333 58.3333C33.3333 56.1232 34.2113 54.0036 35.7741 52.4408C37.3369 50.878 39.4565 50 41.6666 50V50ZM166.667 141.667C166.667 143.877 165.789 145.996 164.226 147.559C162.663 149.122 160.543 150 158.333 150H41.6666C39.4565 150 37.3369 149.122 35.7741 147.559C34.2113 145.996 33.3333 143.877 33.3333 141.667V77.3333L95.6666 115.417C96.9335 116.148 98.3705 116.533 99.8333 116.533C101.296 116.533 102.733 116.148 104 115.417L166.667 77.3333V141.667Z" fill="white"/>
</svg>
