<svg width="50" height="50" viewBox="0 0 50 50" fill="none" xmlns="http://www.w3.org/2000/svg">
<path d="M41.6669 16.6667L29.1669 5.70833C28.021 4.68342 26.5376 4.11681 25.0002 4.11681C23.4628 4.11681 21.9794 4.68342 20.8335 5.70833L8.33353 16.6667C7.6718 17.2585 7.14374 17.9845 6.78451 18.7963C6.42529 19.6082 6.24314 20.4873 6.2502 21.375V39.5833C6.2502 41.2409 6.90868 42.8306 8.08078 44.0027C9.25288 45.1748 10.8426 45.8333 12.5002 45.8333H37.5002C39.1578 45.8333 40.7475 45.1748 41.9196 44.0027C43.0917 42.8306 43.7502 41.2409 43.7502 39.5833V21.3542C43.7543 20.4699 43.5707 19.5949 43.2116 18.7868C42.8525 17.9788 42.326 17.2562 41.6669 16.6667V16.6667ZM29.1669 41.6667H20.8335V31.25C20.8335 30.6975 21.053 30.1676 21.4437 29.7769C21.8344 29.3862 22.3643 29.1667 22.9169 29.1667H27.0835C27.6361 29.1667 28.166 29.3862 28.5567 29.7769C28.9474 30.1676 29.1669 30.6975 29.1669 31.25V41.6667ZM39.5835 39.5833C39.5835 40.1359 39.364 40.6658 38.9733 41.0565C38.5826 41.4472 38.0527 41.6667 37.5002 41.6667H33.3335V31.25C33.3335 29.5924 32.6751 28.0027 31.503 26.8306C30.3308 25.6585 28.7411 25 27.0835 25H22.9169C21.2593 25 19.6695 25.6585 18.4974 26.8306C17.3253 28.0027 16.6669 29.5924 16.6669 31.25V41.6667H12.5002C11.9477 41.6667 11.4178 41.4472 11.0271 41.0565C10.6364 40.6658 10.4169 40.1359 10.4169 39.5833V21.3542C10.4172 21.0584 10.4806 20.766 10.6027 20.4966C10.7249 20.2272 10.903 19.9869 11.1252 19.7917L23.6252 8.85416C24.0054 8.52017 24.4941 8.33597 25.0002 8.33597C25.5063 8.33597 25.995 8.52017 26.3752 8.85416L38.8752 19.7917C39.0974 19.9869 39.2755 20.2272 39.3977 20.4966C39.5198 20.766 39.5832 21.0584 39.5835 21.3542V39.5833Z" fill="black"/>
</svg>
