<svg width="200" height="126" viewBox="0 0 200 126" fill="none" xmlns="http://www.w3.org/2000/svg">
<path d="M19.2197 3.92157H181.515C189.596 3.92157 196.307 10.4956 196.307 18.7131V106.914C196.307 114.995 189.733 121.569 181.515 121.569H19.2197C11.1392 121.569 4.42822 114.995 4.42822 106.914V18.5761C4.5652 10.4956 11.1392 3.92157 19.2197 3.92157Z" fill="white" stroke="#E1E1E1" stroke-miterlimit="10"/>
<path d="M115.912 34.7371H84.6858V90.7529H115.912V34.7371Z" fill="#EB621D"/>
<path d="M86.8773 62.6764C86.8773 51.4459 92.2185 41.1741 100.436 34.8741C94.4099 30.0805 86.7401 27.2044 78.5228 27.2044C58.8009 27.2044 42.9138 43.2286 42.9138 62.8137C42.9138 82.3984 58.9377 98.4227 78.5228 98.4227C86.7401 98.4227 94.5468 95.5466 100.436 90.7529C92.0817 84.1792 86.8773 74.0443 86.8773 62.6764Z" fill="#E41222"/>
<path d="M157.958 62.6764C157.958 82.3984 141.934 98.2859 122.349 98.2859C114.132 98.2859 106.325 95.4094 100.436 90.6161C108.653 84.0419 113.995 74.0443 113.995 62.8137C113.995 51.5831 108.653 41.311 100.436 35.011C106.462 30.2175 114.132 27.3414 122.349 27.3414C141.934 27.2044 157.958 43.0917 157.958 62.6764Z" fill="#F59E1F"/>
</svg>
