<svg width="200" height="130" viewBox="0 0 200 130" fill="none" xmlns="http://www.w3.org/2000/svg">
<path d="M20.1392 5.65735H182.649C190.747 5.65735 197.473 12.2456 197.473 20.4809V109.01C197.473 117.108 190.884 123.696 182.649 123.696H20.1392C12.0412 123.696 5.31567 117.108 5.31567 109.01V20.3436C5.31567 12.2456 11.9039 5.65735 20.1392 5.65735V5.65735Z" fill="white"/>
<path fill-rule="evenodd" clip-rule="evenodd" d="M20.1391 7.61818C12.9747 7.61818 7.27631 13.3404 7.27631 20.3437V109.01C7.27631 116.002 13.1002 121.736 20.1391 121.736H182.649C189.813 121.736 195.512 116.013 195.512 109.01V20.4809C195.512 13.3403 189.676 7.61818 182.649 7.61818H20.1391V7.61818ZM3.35474 20.3437C3.35474 11.1508 10.8327 3.69659 20.1391 3.69659H182.649C191.818 3.69659 199.433 11.1509 199.433 20.4809V109.01C199.433 118.203 191.955 125.657 182.649 125.657H20.1391C10.9819 125.657 3.35474 118.215 3.35474 109.01V20.3437Z" fill="#E1E1E1"/>
<path fill-rule="evenodd" clip-rule="evenodd" d="M88.7699 89.4659C89.2851 89.4659 89.7024 89.0482 89.7024 88.5329V58.2427C89.7024 53.1855 93.8024 49.0855 98.86 49.0847H98.8612L107.802 49.0977C112.845 49.1078 116.928 53.1988 116.928 58.2416V64.689C116.928 69.7471 112.827 73.8475 107.769 73.8475H95.1318C94.6165 73.8475 94.1993 74.2651 94.1993 74.7804C94.1993 75.2957 94.6165 75.7129 95.1318 75.7129H107.769C113.858 75.7129 118.793 70.7773 118.793 64.689V58.2416C118.793 52.1698 113.878 47.2443 107.806 47.2322H107.806L98.8628 47.2192H98.8612C92.7726 47.2192 87.8369 52.1545 87.8369 58.2427V88.5329C87.8369 89.0482 88.2546 89.4659 88.7699 89.4659V89.4659ZM128.381 75.8486C128.896 75.8486 129.313 75.431 129.313 74.9157V52.289C129.313 49.4867 127.042 47.2149 124.239 47.2149H120.36C119.845 47.2149 119.427 47.6326 119.427 48.1475C119.427 48.6628 119.845 49.0804 120.36 49.0804H124.239C126.011 49.0804 127.448 50.5169 127.448 52.289V74.9157C127.448 75.431 127.866 75.8486 128.381 75.8486Z" fill="#939598"/>
<path d="M127.549 44.642L125.79 42.8827C125.353 42.4463 125.353 41.7384 125.79 41.3019L127.548 39.5435C127.985 39.1064 128.694 39.1064 129.131 39.5435L130.889 41.3019C131.326 41.7384 131.326 42.4463 130.889 42.8827L129.13 44.642C128.693 45.0788 127.985 45.0788 127.549 44.642V44.642Z" fill="#32BCAD"/>
<path fill-rule="evenodd" clip-rule="evenodd" d="M157.508 58.6522C156.706 59.4537 155.407 59.4537 154.606 58.6522L145.607 49.6533C144.033 48.0788 141.897 47.1945 139.671 47.1945H135.824C135.308 47.1945 134.891 47.6122 134.891 48.1275C134.891 48.6424 135.308 49.06 135.824 49.06H139.671C141.402 49.06 143.064 49.7479 144.288 50.9726L153.287 59.971C154.817 61.5012 157.297 61.5016 158.827 59.9714C158.827 59.971 158.827 59.9714 158.827 59.9714L167.793 51.0055C169.017 49.7812 170.678 49.0933 172.41 49.0933H175.538C176.053 49.0933 176.471 48.6757 176.471 48.1604C176.471 47.6451 176.053 47.2279 175.538 47.2279H172.41C170.184 47.2279 168.048 48.1122 166.474 49.6863L157.508 58.6522V58.6522Z" fill="#939598"/>
<path fill-rule="evenodd" clip-rule="evenodd" d="M134.891 74.7176C134.891 75.2329 135.308 75.6506 135.824 75.6506H139.671C141.897 75.6506 144.033 74.7663 145.607 73.1918C145.607 73.1918 145.607 73.1918 145.607 73.1918L154.606 64.1925C155.407 63.3914 156.706 63.3914 157.508 64.1925L166.474 73.1584C168.048 74.7329 170.184 75.6172 172.41 75.6172H175.538C176.053 75.6172 176.471 75.1996 176.471 74.6847C176.471 74.1694 176.053 73.7517 175.538 73.7517H172.41C170.678 73.7517 169.017 73.0639 167.793 71.8396L158.827 62.8737C157.297 61.3435 154.817 61.3435 153.287 62.8737L144.288 71.8725C143.064 73.0968 141.402 73.7851 139.671 73.7851H135.824C135.308 73.7851 134.891 74.2023 134.891 74.7176V74.7176Z" fill="#939598"/>
<path d="M65.8326 80.4667C63.9016 80.4667 62.0855 79.7149 60.7204 78.3498L53.3385 70.9683C52.8204 70.4486 51.9169 70.4502 51.3988 70.9683L43.9898 78.3769C42.6243 79.7416 40.8087 80.4933 38.8775 80.4933H37.4229L46.7718 89.8428C49.6918 92.7624 54.4259 92.7624 57.3459 89.8428L66.722 80.4667H65.8326ZM38.8775 54.3557C40.8087 54.3557 42.6243 55.1079 43.9898 56.4726L51.3985 63.8828C51.9322 64.4161 52.8036 64.4184 53.3385 63.882L60.72 56.4996C62.0855 55.1345 63.9016 54.3828 65.8326 54.3828H66.7216L57.3459 45.0071C54.4259 42.0871 49.6918 42.0871 46.7718 45.0071L37.4231 54.3557H38.8775V54.3557Z" fill="#32BCAD"/>
<path d="M74.4768 62.138L68.8109 56.4721C68.6862 56.522 68.5509 56.5533 68.4086 56.5533H65.8325C64.5007 56.5533 63.1968 57.0933 62.256 58.0349L54.8741 65.4169C54.1835 66.1074 53.276 66.4533 52.369 66.4533C51.4611 66.4533 50.5544 66.1074 49.8635 65.4176L42.4541 58.0082C41.5129 57.0663 40.2094 56.5263 38.8774 56.5263H35.7099C35.5749 56.5263 35.4485 56.4945 35.3293 56.4494L29.6408 62.138C26.721 65.0576 26.721 69.7918 29.6408 72.7118L35.329 78.4C35.4483 78.3553 35.5749 78.3231 35.7099 78.3231H38.8774C40.2094 78.3231 41.5129 77.7831 42.4541 76.8416L49.8627 69.4325C51.2019 68.0945 53.5364 68.0941 54.8741 69.4333L62.256 76.8145C63.1968 77.7561 64.5007 78.2965 65.8325 78.2965H68.4086C68.5513 78.2965 68.6862 78.3274 68.8109 78.3772L74.4768 72.7118C77.3968 69.7918 77.3968 65.0576 74.4768 62.138V62.138Z" fill="#32BCAD"/>
<path d="M96.4609 85.9584C96.0428 85.9584 95.5558 86.0588 95.0746 86.1698V88.0157C95.4083 88.1376 95.7887 88.196 96.1538 88.196C97.0793 88.196 97.5185 87.8839 97.5185 87.069C97.5185 86.3019 97.1589 85.9584 96.4609 85.9584V85.9584ZM94.7625 89.3862V85.736H95.0162L95.0428 85.8949C95.4715 85.7945 96.0636 85.6619 96.4868 85.6619C96.8311 85.6619 97.1589 85.7145 97.4338 85.9368C97.7515 86.1964 97.8519 86.6141 97.8519 87.069C97.8519 87.5451 97.693 87.9949 97.2597 88.2435C96.9577 88.4125 96.5507 88.4811 96.1856 88.4811C95.8099 88.4811 95.4503 88.4227 95.0746 88.3121V89.3862H94.7625V89.3862ZM100.176 85.9474C99.2499 85.9474 98.8374 86.2384 98.8374 87.0529C98.8374 87.8411 99.2448 88.196 100.176 88.196C101.096 88.196 101.509 87.9102 101.509 87.0953C101.509 86.3074 101.102 85.9474 100.176 85.9474ZM101.366 88.196C101.059 88.4176 100.647 88.4811 100.176 88.4811C99.6946 88.4811 99.2817 88.4125 98.9801 88.196C98.6417 87.958 98.504 87.5658 98.504 87.0745C98.504 86.5874 98.6417 86.1913 98.9801 85.9474C99.2817 85.7306 99.6946 85.6619 100.176 85.6619C100.652 85.6619 101.059 85.7306 101.366 85.9474C101.71 86.1913 101.842 86.5874 101.842 87.069C101.842 87.5607 101.704 87.958 101.366 88.196ZM105.748 88.4074L104.716 86.1913H104.695L103.679 88.4074H103.399L102.299 85.736H102.642L103.558 87.9784H103.579L104.573 85.736H104.859L105.88 87.9784H105.902L106.795 85.736H107.129L106.028 88.4074H105.748ZM109.124 85.9419C108.267 85.9419 107.976 86.3227 107.923 86.8733H110.325C110.299 86.2651 109.986 85.9419 109.124 85.9419ZM109.113 88.4815C108.6 88.4815 108.267 88.4074 108.002 88.1847C107.69 87.9149 107.585 87.5239 107.585 87.0745C107.585 86.6458 107.728 86.1913 108.082 85.9317C108.378 85.7255 108.743 85.6619 109.124 85.6619C109.468 85.6619 109.865 85.6988 110.193 85.9211C110.579 86.18 110.653 86.6353 110.653 87.1533H107.913C107.923 87.7035 108.103 88.1906 109.14 88.1906C109.632 88.1906 110.092 88.1109 110.521 88.0368V88.3172C110.076 88.3968 109.584 88.4815 109.113 88.4815V88.4815ZM111.549 88.4074V85.736H111.802L111.829 85.8949C112.395 85.7517 112.66 85.6619 113.157 85.6619H113.194V85.9584H113.12C112.702 85.9584 112.448 86.016 111.861 86.1698V88.4074H111.549V88.4074ZM115.007 85.9419C114.15 85.9419 113.859 86.3227 113.806 86.8733H116.208C116.181 86.2651 115.869 85.9419 115.007 85.9419ZM114.996 88.4815C114.483 88.4815 114.15 88.4074 113.885 88.1847C113.573 87.9149 113.467 87.5239 113.467 87.0745C113.467 86.6458 113.61 86.1913 113.965 85.9317C114.261 85.7255 114.626 85.6619 115.007 85.6619C115.351 85.6619 115.748 85.6988 116.075 85.9211C116.461 86.18 116.536 86.6353 116.536 87.1533H113.795C113.806 87.7035 113.986 88.1906 115.022 88.1906C115.515 88.1906 115.975 88.1109 116.404 88.0368V88.3172C115.959 88.3968 115.467 88.4815 114.996 88.4815V88.4815ZM119.955 86.1278C119.622 86.0058 119.24 85.9474 118.876 85.9474C117.95 85.9474 117.511 86.26 117.511 87.0745C117.511 87.8466 117.87 88.1851 118.569 88.1851C118.987 88.1851 119.473 88.0843 119.955 87.9788V86.1278V86.1278ZM120.013 88.4074L119.986 88.2486C119.558 88.349 118.966 88.4815 118.542 88.4815C118.199 88.4815 117.87 88.4341 117.595 88.2062C117.278 87.9466 117.177 87.5294 117.177 87.0745C117.177 86.5984 117.336 86.1482 117.77 85.9051C118.071 85.7306 118.479 85.6619 118.849 85.6619C119.22 85.6619 119.579 85.7255 119.955 85.8313V84.6094H120.267V88.4074H120.013V88.4074ZM124.843 85.9584C124.425 85.9584 123.939 86.0588 123.457 86.1698V88.0105C123.796 88.1376 124.171 88.196 124.537 88.196C125.462 88.196 125.901 87.8839 125.901 87.069C125.901 86.3019 125.542 85.9584 124.843 85.9584V85.9584ZM125.642 88.2435C125.34 88.4125 124.933 88.4811 124.568 88.4811C124.171 88.4811 123.775 88.4125 123.373 88.28L123.357 88.4074H123.145V84.6094H123.457V85.8839C123.886 85.789 124.462 85.6619 124.87 85.6619C125.214 85.6619 125.542 85.7145 125.817 85.9368C126.134 86.1964 126.235 86.6141 126.235 87.069C126.235 87.5451 126.075 87.9949 125.642 88.2435V88.2435ZM126.649 89.4333V89.1427C126.802 89.1584 126.945 89.1694 127.046 89.1694C127.432 89.1694 127.664 89.058 127.881 88.6188L127.982 88.4074L126.586 85.7357H126.945L128.141 88.0419H128.162L129.299 85.7357H129.653L128.151 88.7353C127.876 89.2804 127.58 89.46 127.035 89.46C126.913 89.46 126.781 89.4494 126.649 89.4333ZM133.955 86.8839H132.919V87.8204H133.96C134.675 87.8204 134.944 87.7407 134.944 87.3498C134.944 86.9309 134.575 86.8839 133.955 86.8839ZM133.765 85.3655H132.919V86.3176H133.77C134.474 86.3176 134.754 86.2333 134.754 85.8364C134.754 85.4133 134.4 85.3655 133.765 85.3655ZM135.373 88.1537C134.992 88.3972 134.532 88.4074 133.691 88.4074H132.109V84.7839H133.654C134.379 84.7839 134.823 84.7941 135.193 85.0168C135.458 85.1757 135.564 85.4188 135.564 85.736C135.564 86.1168 135.405 86.3706 134.992 86.54V86.5607C135.458 86.667 135.759 86.9055 135.759 87.4184C135.759 87.767 135.632 87.9949 135.373 88.1537V88.1537ZM138.924 87.2858C138.611 87.2592 138.294 87.2435 137.961 87.2435C137.416 87.2435 137.226 87.3549 137.226 87.6031C137.226 87.836 137.384 87.9631 137.802 87.9631C138.151 87.9631 138.57 87.8839 138.924 87.8039V87.2858V87.2858ZM139.082 88.4074L139.061 88.2486C138.606 88.36 138.077 88.4811 137.612 88.4811C137.326 88.4811 137.019 88.4443 136.802 88.2851C136.602 88.1427 136.506 87.9098 136.506 87.64C136.506 87.3384 136.639 87.0584 136.956 86.9156C137.236 86.7831 137.612 86.7729 137.956 86.7729C138.236 86.7729 138.611 86.7886 138.924 86.8098V86.7619C138.924 86.3443 138.649 86.2066 137.897 86.2066C137.607 86.2066 137.252 86.2219 136.913 86.2541V85.7145C137.289 85.6831 137.712 85.6619 138.062 85.6619C138.527 85.6619 139.008 85.6988 139.304 85.9102C139.611 86.1274 139.67 86.4294 139.67 86.8255V88.4074H139.082ZM143.157 88.4074V86.9309C143.157 86.4447 142.909 86.2706 142.464 86.2706C142.137 86.2706 141.724 86.3549 141.375 86.4396V88.4074H140.629V85.736H141.237L141.264 85.9051C141.735 85.7839 142.258 85.6619 142.692 85.6619C143.02 85.6619 143.353 85.7094 143.607 85.9368C143.819 86.1274 143.898 86.3913 143.898 86.7729V88.4074H143.157V88.4074ZM146.006 88.4811C145.662 88.4811 145.286 88.4337 145.011 88.2011C144.683 87.9364 144.588 87.5188 144.588 87.0686C144.588 86.6458 144.725 86.1851 145.133 85.9266C145.466 85.709 145.879 85.6619 146.307 85.6619C146.614 85.6619 146.915 85.6831 147.248 85.7145V86.2858C146.979 86.26 146.656 86.2384 146.397 86.2384C145.688 86.2384 145.355 86.4608 145.355 87.0745C145.355 87.6509 145.603 87.8992 146.185 87.8992C146.524 87.8992 146.921 87.836 147.307 87.7619V88.3121C146.889 88.3972 146.434 88.4811 146.006 88.4811V88.4811ZM149.51 86.2223C148.801 86.2223 148.489 86.4447 148.489 87.0533C148.489 87.6615 148.796 87.9211 149.51 87.9211C150.213 87.9211 150.52 87.7035 150.52 87.0953C150.52 86.487 150.219 86.2223 149.51 86.2223ZM150.79 88.2011C150.462 88.4227 150.034 88.4815 149.51 88.4815C148.975 88.4815 148.547 88.4176 148.224 88.2011C147.854 87.958 147.722 87.5557 147.722 87.0745C147.722 86.5929 147.854 86.1855 148.224 85.9419C148.547 85.7255 148.975 85.6619 149.51 85.6619C150.039 85.6619 150.462 85.7255 150.79 85.9419C151.16 86.1855 151.288 86.5929 151.288 87.0686C151.288 87.5505 151.155 87.958 150.79 88.2011ZM155.594 88.4811C155.144 88.4811 154.658 88.4074 154.292 88.1055C153.859 87.7458 153.727 87.1906 153.727 86.5925C153.727 86.0588 153.896 85.4239 154.462 85.0533C154.9 84.7682 155.446 84.7098 155.996 84.7098C156.398 84.7098 156.81 84.736 157.26 84.7733V85.4239C156.874 85.3921 156.398 85.3655 156.028 85.3655C154.996 85.3655 154.557 85.7568 154.557 86.5925C154.557 87.4447 154.964 87.8255 155.726 87.8255C156.223 87.8255 156.779 87.7247 157.34 87.6086V88.2537C156.779 88.3651 156.191 88.4811 155.594 88.4811V88.4811ZM159.531 86.138C158.912 86.138 158.674 86.3607 158.626 86.7678H160.425C160.404 86.3341 160.15 86.138 159.531 86.138ZM159.42 88.4815C158.981 88.4815 158.584 88.4286 158.288 88.1851C157.971 87.9211 157.86 87.5239 157.86 87.0686C157.86 86.6615 157.992 86.207 158.362 85.9419C158.69 85.7094 159.108 85.6619 159.531 85.6619C159.912 85.6619 160.362 85.7043 160.69 85.9317C161.118 86.2333 161.155 86.6992 161.16 87.249H158.621C158.637 87.6564 158.854 87.9211 159.605 87.9211C160.071 87.9211 160.589 87.8521 161.028 87.7831V88.307C160.515 88.3917 159.955 88.4815 159.42 88.4815V88.4815ZM164.479 88.4074V86.9309C164.479 86.4447 164.231 86.2706 163.786 86.2706C163.458 86.2706 163.046 86.3549 162.697 86.4396V88.4074H161.951V85.736H162.559L162.585 85.9051C163.056 85.7839 163.58 85.6619 164.014 85.6619C164.342 85.6619 164.675 85.7094 164.929 85.9368C165.14 86.1274 165.22 86.3913 165.22 86.7729V88.4074H164.479V88.4074ZM167.343 88.4811C166.983 88.4811 166.655 88.3807 166.475 88.1004C166.343 87.9098 166.279 87.6509 166.279 87.2909V86.2909H165.74V85.736H166.279L166.359 84.9266H167.02V85.736H168.073V86.2909H167.02V87.1486C167.02 87.3549 167.036 87.5294 167.094 87.6564C167.174 87.836 167.348 87.9047 167.581 87.9047C167.755 87.9047 167.967 87.878 168.115 87.8521V88.3858C167.872 88.4337 167.591 88.4811 167.343 88.4811ZM168.801 88.4074V85.736H169.409L169.435 85.9051C169.928 85.7678 170.292 85.6619 170.758 85.6619C170.779 85.6619 170.811 85.6619 170.853 85.667V86.3019C170.768 86.2968 170.668 86.2968 170.594 86.2968C170.229 86.2968 169.954 86.3388 169.546 86.4345V88.4074H168.801V88.4074ZM173.565 87.2858C173.253 87.2592 172.935 87.2435 172.602 87.2435C172.057 87.2435 171.866 87.3549 171.866 87.6031C171.866 87.836 172.026 87.9631 172.443 87.9631C172.792 87.9631 173.21 87.8839 173.565 87.8039V87.2858V87.2858ZM173.723 88.4074L173.702 88.2486C173.247 88.36 172.718 88.4811 172.253 88.4811C171.967 88.4811 171.66 88.4443 171.443 88.2851C171.242 88.1427 171.147 87.9098 171.147 87.64C171.147 87.3384 171.279 87.0584 171.597 86.9156C171.877 86.7831 172.253 86.7729 172.597 86.7729C172.877 86.7729 173.253 86.7886 173.565 86.8098V86.7619C173.565 86.3443 173.29 86.2066 172.539 86.2066C172.248 86.2066 171.893 86.2219 171.554 86.2541V85.7145C171.93 85.6831 172.353 85.6619 172.702 85.6619C173.168 85.6619 173.65 85.6988 173.946 85.9102C174.252 86.1274 174.311 86.4294 174.311 86.8255V88.4074H173.723V88.4074ZM175.27 84.6094H176.016V88.4074H175.27V84.6094Z" fill="#939598"/>
</svg>
