<svg width="100" height="100" viewBox="0 0 100 100" fill="none" xmlns="http://www.w3.org/2000/svg">
<path d="M79.1668 16.6667H20.8335C17.5183 16.6667 14.3389 17.9837 11.9947 20.3279C9.65046 22.6721 8.3335 25.8515 8.3335 29.1667V70.8334C8.3335 74.1486 9.65046 77.328 11.9947 79.6722C14.3389 82.0164 17.5183 83.3334 20.8335 83.3334H79.1668C82.482 83.3334 85.6615 82.0164 88.0057 79.6722C90.3499 77.328 91.6668 74.1486 91.6668 70.8334V29.1667C91.6668 25.8515 90.3499 22.6721 88.0057 20.3279C85.6615 17.9837 82.482 16.6667 79.1668 16.6667V16.6667ZM20.8335 25.0001H79.1668C80.2719 25.0001 81.3317 25.4391 82.1131 26.2205C82.8945 27.0019 83.3335 28.0617 83.3335 29.1667L50.0002 49.5001L16.6668 29.1667C16.6668 28.0617 17.1058 27.0019 17.8872 26.2205C18.6686 25.4391 19.7284 25.0001 20.8335 25.0001V25.0001ZM83.3335 70.8334C83.3335 71.9385 82.8945 72.9983 82.1131 73.7797C81.3317 74.5611 80.2719 75.0001 79.1668 75.0001H20.8335C19.7284 75.0001 18.6686 74.5611 17.8872 73.7797C17.1058 72.9983 16.6668 71.9385 16.6668 70.8334V38.6667L47.8335 57.7084C48.4669 58.0741 49.1854 58.2666 49.9168 58.2666C50.6482 58.2666 51.3668 58.0741 52.0002 57.7084L83.3335 38.6667V70.8334Z" fill="white"/>
</svg>
