<svg width="100" height="100" viewBox="0 0 100 100" fill="none" xmlns="http://www.w3.org/2000/svg">
<path d="M65.4586 52.9583C69.5435 49.7444 72.5252 45.3372 73.9887 40.3498C75.4523 35.3624 75.3249 30.0428 73.6243 25.1311C71.9238 20.2195 68.7346 15.96 64.5005 12.9452C60.2664 9.9305 55.1979 8.31044 50.0002 8.31044C44.8025 8.31044 39.734 9.9305 35.4999 12.9452C31.2658 15.96 28.0767 20.2195 26.3761 25.1311C24.6756 30.0428 24.5482 35.3624 26.0117 40.3498C27.4753 45.3372 30.4569 49.7444 34.5419 52.9583C27.5422 55.7627 21.4348 60.414 16.8706 66.4163C12.3065 72.4187 9.45674 79.5471 8.62523 87.0417C8.56504 87.5888 8.61322 88.1425 8.767 88.6711C8.92079 89.1996 9.17718 89.6927 9.52153 90.1222C10.217 90.9896 11.2285 91.5451 12.3336 91.6667C13.4386 91.7882 14.5467 91.4658 15.4141 90.7704C16.2814 90.0749 16.837 89.0634 16.9586 87.9583C17.8735 79.8133 21.7573 72.2909 27.8678 66.8283C33.9784 61.3657 41.8873 58.346 50.0836 58.346C58.2798 58.346 66.1888 61.3657 72.2993 66.8283C78.4099 72.2909 82.2936 79.8133 83.2086 87.9583C83.3218 88.9822 83.8104 89.9277 84.5798 90.6126C85.3493 91.2974 86.3452 91.6729 87.3752 91.6667H87.8336C88.9258 91.541 89.9241 90.9887 90.6109 90.1302C91.2977 89.2717 91.6174 88.1765 91.5002 87.0833C90.6648 79.5675 87.7997 72.4208 83.2121 66.4092C78.6245 60.3976 72.4874 55.7478 65.4586 52.9583V52.9583ZM50.0002 50C46.7039 50 43.4815 49.0225 40.7407 47.1912C37.9999 45.3598 35.8637 42.7568 34.6022 39.7114C33.3408 36.666 33.0107 33.3149 33.6538 30.0818C34.2969 26.8488 35.8842 23.8791 38.2151 21.5482C40.546 19.2174 43.5157 17.63 46.7487 16.9869C49.9817 16.3438 53.3329 16.6739 56.3783 17.9353C59.4237 19.1968 62.0267 21.333 63.8581 24.0738C65.6894 26.8147 66.6669 30.037 66.6669 33.3333C66.6669 37.7536 64.911 41.9929 61.7853 45.1185C58.6597 48.2441 54.4205 50 50.0002 50Z" fill="black"/>
</svg>
