<svg width="100" height="100" viewBox="0 0 100 100" fill="none" xmlns="http://www.w3.org/2000/svg">
<path d="M66.6668 8.33333H33.3335C30.0183 8.33333 26.8389 9.65029 24.4947 11.9945C22.1505 14.3387 20.8335 17.5181 20.8335 20.8333V79.1667C20.8335 82.4819 22.1505 85.6613 24.4947 88.0055C26.8389 90.3497 30.0183 91.6667 33.3335 91.6667H66.6668C69.982 91.6667 73.1615 90.3497 75.5057 88.0055C77.8499 85.6613 79.1668 82.4819 79.1668 79.1667V20.8333C79.1668 17.5181 77.8499 14.3387 75.5057 11.9945C73.1615 9.65029 69.982 8.33333 66.6668 8.33333ZM70.8335 79.1667C70.8335 80.2717 70.3945 81.3315 69.6131 82.1129C68.8317 82.8944 67.7719 83.3333 66.6668 83.3333H33.3335C32.2284 83.3333 31.1686 82.8944 30.3872 82.1129C29.6058 81.3315 29.1668 80.2717 29.1668 79.1667V75H70.8335V79.1667ZM70.8335 66.6667H29.1668V20.8333C29.1668 19.7283 29.6058 18.6685 30.3872 17.8871C31.1686 17.1056 32.2284 16.6667 33.3335 16.6667H66.6668C67.7719 16.6667 68.8317 17.1056 69.6131 17.8871C70.3945 18.6685 70.8335 19.7283 70.8335 20.8333V66.6667Z" fill="black"/>
</svg>
