<svg width="100" height="100" viewBox="0 0 100 100" fill="none" xmlns="http://www.w3.org/2000/svg">
<path d="M87.5002 66.6667H29.1668C28.0618 66.6667 27.002 66.2277 26.2206 65.4463C25.4391 64.6649 25.0002 63.6051 25.0002 62.5C25.0002 61.3949 25.4391 60.3351 26.2206 59.5537C27.002 58.7723 28.0618 58.3333 29.1668 58.3333H72.6668C75.4529 58.3335 78.1591 57.4029 80.3559 55.6893C82.5526 53.9757 84.1139 51.5773 84.7918 48.875L91.6668 21.8333C91.8229 21.2184 91.8364 20.5759 91.7065 19.9549C91.5765 19.3339 91.3064 18.7508 90.9168 18.25C90.5116 17.7364 89.9911 17.3254 89.3976 17.0503C88.804 16.7753 88.154 16.6438 87.5002 16.6667H28.1668C27.3072 14.2352 25.7165 12.1292 23.6129 10.6372C21.5093 9.14532 18.9958 8.34058 16.4168 8.33333H12.5002C11.3951 8.33333 10.3353 8.77231 9.55388 9.55372C8.77248 10.3351 8.3335 11.3949 8.3335 12.5C8.3335 13.6051 8.77248 14.6649 9.55388 15.4463C10.3353 16.2277 11.3951 16.6667 12.5002 16.6667H16.4168C17.3686 16.6389 18.3012 16.938 19.0594 17.5142C19.8175 18.0904 20.3554 18.9088 20.5835 19.8333L20.8335 21.8333L28.0418 50C24.7266 50.1492 21.6065 51.6092 19.3677 54.0589C17.129 56.5086 15.9551 59.7473 16.1043 63.0625C16.2535 66.3777 17.7135 69.4979 20.1632 71.7366C22.6129 73.9753 25.8516 75.1492 29.1668 75H29.9168C29.2316 76.888 29.0114 78.9134 29.2749 80.9046C29.5384 82.8958 30.2779 84.7942 31.4307 86.439C32.5835 88.0838 34.1156 89.4266 35.8975 90.3536C37.6793 91.2807 39.6583 91.7647 41.6668 91.7647C43.6754 91.7647 45.6544 91.2807 47.4362 90.3536C49.218 89.4266 50.7502 88.0838 51.903 86.439C53.0558 84.7942 53.7953 82.8958 54.0588 80.9046C54.3223 78.9134 54.1021 76.888 53.4168 75H63.2502C62.5649 76.888 62.3447 78.9134 62.6082 80.9046C62.8717 82.8958 63.6112 84.7942 64.764 86.439C65.9168 88.0838 67.449 89.4266 69.2308 90.3536C71.0126 91.2807 72.9916 91.7647 75.0002 91.7647C77.0087 91.7647 78.9877 91.2807 80.7695 90.3536C82.5513 89.4266 84.0835 88.0838 85.2363 86.439C86.3891 84.7942 87.1286 82.8958 87.3921 80.9046C87.6556 78.9134 87.4354 76.888 86.7502 75H87.5002C88.6052 75 89.665 74.561 90.4464 73.7796C91.2278 72.9982 91.6668 71.9384 91.6668 70.8333C91.6668 69.7283 91.2278 68.6684 90.4464 67.887C89.665 67.1056 88.6052 66.6667 87.5002 66.6667ZM82.1668 25L76.7085 46.8333C76.4804 47.7578 75.9425 48.5763 75.1843 49.1524C74.4262 49.7286 73.4936 50.0277 72.5418 50H36.5835L30.3335 25H82.1668ZM41.6668 83.3333C40.8427 83.3333 40.0372 83.089 39.352 82.6311C38.6667 82.1733 38.1327 81.5225 37.8173 80.7612C37.502 79.9998 37.4195 79.162 37.5802 78.3538C37.741 77.5455 38.1378 76.8031 38.7206 76.2204C39.3033 75.6377 40.0457 75.2408 40.854 75.0801C41.6622 74.9193 42.5 75.0018 43.2613 75.3172C44.0227 75.6325 44.6734 76.1666 45.1313 76.8518C45.5891 77.537 45.8335 78.3426 45.8335 79.1667C45.8335 80.2717 45.3945 81.3315 44.6131 82.1129C43.8317 82.8943 42.7719 83.3333 41.6668 83.3333ZM75.0002 83.3333C74.1761 83.3333 73.3705 83.089 72.6853 82.6311C72.0001 82.1733 71.466 81.5225 71.1507 80.7612C70.8353 79.9998 70.7528 79.162 70.9136 78.3538C71.0743 77.5455 71.4712 76.8031 72.0539 76.2204C72.6366 75.6377 73.379 75.2408 74.1873 75.0801C74.9955 74.9193 75.8333 75.0018 76.5947 75.3172C77.356 75.6325 78.0068 76.1666 78.4646 76.8518C78.9225 77.537 79.1668 78.3426 79.1668 79.1667C79.1668 80.2717 78.7278 81.3315 77.9464 82.1129C77.165 82.8943 76.1052 83.3333 75.0002 83.3333Z" fill="black"/>
</svg>
