<svg width="100" height="100" viewBox="0 0 100 100" fill="none" xmlns="http://www.w3.org/2000/svg">
<path fill-rule="evenodd" clip-rule="evenodd" d="M51.5151 100C78.2926 100 100 78.2926 100 51.5151C100 24.7377 78.2926 3.03027 51.5151 3.03027C24.7377 3.03027 3.03027 24.7377 3.03027 51.5151C3.03027 78.2926 24.7377 100 51.5151 100Z" fill="#FCD4CF"/>
<path fill-rule="evenodd" clip-rule="evenodd" d="M48.4849 96.9697C75.2623 96.9697 96.9697 75.2623 96.9697 48.4849C96.9697 21.7074 75.2623 0 48.4849 0C21.7074 0 0 21.7074 0 48.4849C0 75.2623 21.7074 96.9697 48.4849 96.9697Z" fill="#941C0C"/>
<path fill-rule="evenodd" clip-rule="evenodd" d="M48.4842 93.941C73.5881 93.941 93.9388 73.5903 93.9388 48.4864C93.9388 23.3825 73.5881 3.03174 48.4842 3.03174C23.3803 3.03174 3.02954 23.3825 3.02954 48.4864C3.02954 73.5903 23.3803 93.941 48.4842 93.941Z" fill="#E8442E"/>
<path fill-rule="evenodd" clip-rule="evenodd" d="M25.5443 35.5942C26.7248 31.0657 30.4695 27.621 35.1238 26.7888C35.7334 26.6824 37.1171 26.6533 41.723 26.6437C47.3933 26.634 47.5578 26.6437 47.6546 26.8178C47.7223 26.9533 47.7514 34.346 47.7514 50.0409C47.7514 71.2126 47.7417 73.0801 47.5965 73.2253C47.4514 73.3704 46.8902 73.3801 41.4715 73.3414C36.2366 73.3124 35.4238 73.2833 34.7852 73.1382C29.889 71.9964 26.4442 68.542 25.3701 63.6941C25.1766 62.7942 25.1669 62.5233 25.1379 50.8731C25.0895 38.1875 25.1186 37.2295 25.5443 35.5942ZM43.8811 69.616L43.8811 50.0118V30.4077L40.1364 30.4174C35.9949 30.427 35.4047 30.4851 34.1274 30.9979C31.5825 32.014 29.6957 34.2685 29.1151 36.9876C28.9119 37.9455 28.9119 62.0201 29.1248 62.9974C29.7731 66.1228 32.0857 68.5225 35.2015 69.3257C35.9272 69.5095 36.3142 69.5289 39.9428 69.5676L43.8811 69.616Z" fill="white"/>
<path d="M35.9559 36.3198C35.3463 36.436 34.4174 36.9004 33.9239 37.3359C32.9079 38.2164 32.4047 39.4646 32.4821 40.9354C32.5208 41.6999 32.5692 41.9031 32.8789 42.5223C33.3336 43.4609 34.0207 44.148 34.9593 44.6124C35.6076 44.9317 35.7721 44.9704 36.6139 44.9995C37.3783 45.0285 37.6493 44.9995 38.1621 44.8253C40.2619 44.1189 41.5294 42.0772 41.1714 39.9872C40.7553 37.5004 38.3943 35.836 35.9559 36.3198Z" fill="white"/>
<path fill-rule="evenodd" clip-rule="evenodd" d="M52.3962 50.0119C52.3962 37.2198 52.4253 26.7308 52.464 26.7017C52.493 26.663 54.4283 26.634 56.7506 26.634C60.1179 26.634 61.1629 26.663 61.8403 26.7791C66.8913 27.65 70.7328 31.4528 71.6907 36.4941C71.8262 37.2005 71.8456 38.8551 71.8456 49.9538C71.8456 61.8105 71.8596 63.2052 71.4858 64.4867C71.4212 64.708 71.3451 64.926 71.2553 65.194C71.0908 65.6681 70.7715 66.4325 70.5296 66.8873C68.6427 70.4385 65.1786 72.8285 61.25 73.2737C60.3211 73.3704 52.8123 73.4091 52.5511 73.3124C52.4059 73.2543 52.3962 71.1158 52.3962 50.0119ZM66.049 50.7955C65.5458 49.3248 64.3073 48.1733 62.7978 47.7766C60.3787 47.1476 57.8629 48.541 57.1372 50.9117C56.8952 51.6664 56.8856 52.905 57.0985 53.6404C57.8048 56.0401 60.3787 57.5012 62.7978 56.8723C64.2879 56.4755 65.4491 55.4015 66.0393 53.8726C66.3587 53.0404 66.3683 51.7051 66.049 50.7955Z" fill="white"/>
<g opacity="0.5">
<path fill-rule="evenodd" clip-rule="evenodd" d="M27.0512 16.8891C28.3066 16.8891 29.3244 15.8717 29.3244 14.6167C29.3244 13.3616 28.3066 12.3442 27.0512 12.3442C25.7958 12.3442 24.7781 13.3616 24.7781 14.6167C24.7781 15.8717 25.7958 16.8891 27.0512 16.8891Z" fill="white"/>
<path d="M21.6738 17.4438C23.8557 17.5665 24.4011 20.1286 21.9466 22.4635C18.6587 25.6665 16.2042 29.6286 14.4617 33.8892C14.4617 33.8892 13.5829 35.2922 12.3102 35.2559C7.38598 35.1119 13.8102 22.871 20.2648 17.8847C20.6738 17.5938 20.9163 17.4377 21.6738 17.4438Z" fill="white"/>
</g>
</svg>
