<svg width="200" height="124" viewBox="0 0 200 124" fill="none" xmlns="http://www.w3.org/2000/svg">
<path d="M15.4605 2.5625H181.304C189.628 2.5625 196.383 9.277 196.383 17.5627V107.565C196.383 115.848 189.632 122.562 181.304 122.562H15.4605C7.13488 122.562 0.382812 115.847 0.382812 107.565V17.5627C0.384212 9.2756 7.13488 2.5625 15.4605 2.5625Z" fill="white"/>
<path d="M87.586 5.40234H75.244V76.9488H87.586V5.40234ZM4.28247 17.7615V107.364C4.28247 113.114 8.22447 117.907 13.5387 119.286V5.83798C8.22447 7.21682 4.28247 12.0089 4.28247 17.7615ZM72.1588 5.40234H65.988V76.9488H72.1588V5.40234ZM32.0498 119.723H35.1352V5.40234H32.0498V119.723ZM59.8172 5.40234H53.6464V76.9488H59.8172V5.40234ZM19.7095 119.723H28.9657V5.40234H19.7095V119.723ZM103.01 5.40234H93.754V76.9488H103.01V5.40234ZM50.5624 5.40234H41.306V76.9488H50.5624V5.40234ZM177.059 119.723H180.143V5.40234H177.059V119.723ZM164.717 119.723H173.972V5.40234H164.717V119.723ZM146.203 76.9488H158.546V5.40234H146.203V76.9488ZM186.312 7.1169V118.01C189.986 115.868 192.483 111.926 192.483 107.365V17.7615C192.483 13.1972 189.987 9.25646 186.312 7.1169ZM124.608 5.40234H115.349V76.9488H124.608V5.40234ZM109.181 5.40234H106.097V76.9488H109.181V5.40234ZM133.863 5.40234H127.692V76.9488H133.863V5.40234ZM143.119 5.40234H136.948V76.9488H143.119V5.40234ZM118.896 93.64H124.275V108.844H128.512V93.64H133.894V90.0004H118.896V93.64ZM145.359 89.5688C142.55 89.5688 140.186 90.5 138.268 92.3584C136.348 94.2184 135.388 96.5364 135.388 99.3008C135.388 102.069 136.348 104.382 138.268 106.247C140.188 108.106 142.55 109.037 145.359 109.037C148.168 109.037 150.53 108.106 152.449 106.247C154.369 104.385 155.33 102.069 155.33 99.3008C155.33 96.5364 154.366 94.2212 152.449 92.3584C150.53 90.5 148.168 89.5688 145.359 89.5688ZM149.381 103.601C148.291 104.78 146.956 105.368 145.372 105.368C143.788 105.368 142.453 104.78 141.366 103.601C140.28 102.425 139.734 100.997 139.734 99.3156C139.734 97.6344 140.28 96.2008 141.366 95.0136C142.454 93.8252 143.789 93.234 145.372 93.234C146.959 93.234 148.294 93.8252 149.381 95.0136C150.468 96.2008 151.01 97.6344 151.01 99.3156C151.01 100.997 150.468 102.425 149.381 103.601ZM57.4096 99.0584C57.736 98.9172 57.9628 98.8104 58.0892 98.7508C58.2152 98.6892 58.4424 98.5296 58.7684 98.2792C59.7284 97.5584 60.208 96.4632 60.208 94.9872C60.208 93.7668 59.7836 92.6716 58.9308 91.7004C58.4596 91.1768 57.7576 90.7664 56.8256 90.4588C55.894 90.1512 54.7836 89.9992 53.4972 89.9992H46.1072V108.844H54.4212C57.03 108.844 58.86 108.26 59.9096 107.093C60.8148 106.086 61.2684 104.928 61.2684 103.615C61.2684 102.428 60.9196 101.436 60.2228 100.64C59.5256 99.8364 58.5872 99.31 57.4096 99.0584ZM50.346 93.5576H52.3844C53.6344 93.5576 54.5216 93.6936 55.0468 93.964C55.5716 94.2344 55.8336 94.786 55.8336 95.6212C55.8336 96.4564 55.5488 97.0028 54.9784 97.2544C54.4076 97.5048 53.5336 97.6304 52.356 97.6304H50.346V93.5576ZM55.984 104.842C55.3772 105.139 54.4668 105.284 53.2528 105.284H50.346V100.944H52.8448C54.2584 100.944 55.2856 101.083 55.9288 101.362C56.572 101.64 56.8928 102.216 56.8928 103.087C56.8928 103.957 56.5908 104.546 55.984 104.842ZM106.942 101.215H115.446V97.6304H106.942V93.748H116.398V90.0004H102.701V108.844H116.694V105.123H106.942V101.215ZM91.5092 90.0004H87.2704V108.844H99.6064V105.096H91.5104L91.5092 90.0004ZM73.7136 89.5688C70.906 89.5688 68.5416 90.5 66.6216 92.3584C64.7016 94.2184 63.7416 96.5364 63.7416 99.3008C63.7416 102.069 64.7016 104.382 66.6216 106.247C68.5416 108.106 70.9048 109.037 73.7136 109.037C76.5196 109.037 78.884 108.106 80.804 106.247C82.724 104.385 83.684 102.069 83.684 99.3008C83.684 96.5364 82.724 94.2212 80.804 92.3584C78.884 90.5 76.5196 89.5688 73.7136 89.5688ZM77.7336 103.601C76.6472 104.78 75.31 105.368 73.7256 105.368C72.1412 105.368 70.8052 104.78 69.718 103.601C68.6316 102.425 68.088 100.997 68.088 99.3156C68.088 97.6344 68.6316 96.2008 69.718 95.0136C70.8052 93.8252 72.1412 93.234 73.7256 93.234C75.31 93.234 76.6472 93.8252 77.7336 95.0136C78.8212 96.2008 79.3648 97.6344 79.3648 99.3156C79.3648 100.997 78.8212 102.425 77.7336 103.601Z" fill="black"/>
</svg>
