<svg width="201" height="201" viewBox="0 0 201 201" fill="none" xmlns="http://www.w3.org/2000/svg">
<path fill-rule="evenodd" clip-rule="evenodd" d="M103.831 200.103C157.385 200.103 200.8 156.688 200.8 103.133C200.8 49.5782 157.385 6.16339 103.831 6.16339C50.2757 6.16339 6.86084 49.5782 6.86084 103.133C6.86084 156.688 50.2757 200.103 103.831 200.103Z" fill="#FCD4CF"/>
<path fill-rule="evenodd" clip-rule="evenodd" d="M97.77 194.042C151.325 194.042 194.74 150.627 194.74 97.0725C194.74 43.5176 151.325 0.102783 97.77 0.102783C44.2151 0.102783 0.800293 43.5176 0.800293 97.0725C0.800293 150.627 44.2151 194.042 97.77 194.042Z" fill="#941C0C"/>
<path fill-rule="evenodd" clip-rule="evenodd" d="M97.7686 187.985C147.976 187.985 188.678 147.283 188.678 97.0756C188.678 46.8678 147.976 6.16635 97.7686 6.16635C47.5608 6.16635 6.85938 46.8678 6.85938 97.0756C6.85938 147.283 47.5608 187.985 97.7686 187.985Z" fill="#E8442E"/>
<path fill-rule="evenodd" clip-rule="evenodd" d="M51.8889 71.2911C54.2499 62.2341 61.7394 55.3445 71.0479 53.6802C72.2671 53.4673 75.0346 53.4093 84.2464 53.3899C95.587 53.3706 95.916 53.3899 96.1095 53.7383C96.245 54.0092 96.303 68.7946 96.303 100.184C96.303 142.528 96.2837 146.263 95.9934 146.553C95.7031 146.843 94.5806 146.863 83.7432 146.785C73.2735 146.727 71.6479 146.669 70.3706 146.379C60.5782 144.095 53.6887 137.187 51.5406 127.491C51.1535 125.691 51.1342 125.149 51.0761 101.849C50.9793 76.4775 51.0374 74.5616 51.8889 71.2911ZM88.5625 139.335L88.5625 100.126V60.9182L81.073 60.9375C72.7901 60.9569 71.6096 61.073 69.0551 62.0987C63.9654 64.1307 60.1916 68.6399 59.0305 74.0779C58.624 75.9938 58.624 124.143 59.0498 126.098C60.3464 132.348 64.9717 137.148 71.2032 138.754C72.6547 139.122 73.4288 139.161 80.686 139.238L88.5625 139.335Z" fill="white"/>
<path d="M72.7121 72.7425C71.4929 72.9748 69.6351 73.9037 68.6481 74.7746C66.6161 76.5356 65.6097 79.0321 65.7645 81.9737C65.842 83.5026 65.9387 83.909 66.558 85.1475C67.4676 87.0247 68.8416 88.3988 70.7188 89.3277C72.0154 89.9663 72.3444 90.0437 74.0281 90.1018C75.5569 90.1598 76.0988 90.1018 77.1245 89.7534C81.324 88.3407 83.8592 84.2573 83.1431 80.0772C82.311 75.1036 77.589 71.7749 72.7121 72.7425Z" fill="white"/>
<path fill-rule="evenodd" clip-rule="evenodd" d="M105.593 100.126C105.593 74.5423 105.651 53.5642 105.728 53.5061C105.786 53.4287 109.657 53.3707 114.301 53.3707C121.036 53.3707 123.126 53.4287 124.481 53.6609C134.583 55.4027 142.266 63.0082 144.182 73.0909C144.453 74.5036 144.491 77.8129 144.491 100.01C144.491 123.724 144.52 126.513 143.772 129.076C143.643 129.519 143.49 129.955 143.311 130.491C142.982 131.439 142.343 132.968 141.859 133.877C138.086 140.98 131.157 145.76 123.3 146.65C121.443 146.843 106.425 146.921 105.902 146.727C105.612 146.611 105.593 142.334 105.593 100.126ZM132.898 101.694C131.892 98.7524 129.415 96.4494 126.396 95.656C121.558 94.398 116.526 97.1848 115.075 101.926C114.591 103.436 114.571 105.913 114.997 107.384C116.41 112.183 121.558 115.105 126.396 113.847C129.376 113.054 131.698 110.906 132.879 107.848C133.518 106.184 133.537 103.513 132.898 101.694Z" fill="white"/>
<g opacity="0.5">
<path fill-rule="evenodd" clip-rule="evenodd" d="M54.9027 33.881C57.4136 33.881 59.449 31.8462 59.449 29.3361C59.449 26.826 57.4136 24.7912 54.9027 24.7912C52.3919 24.7912 50.3564 26.826 50.3564 29.3361C50.3564 31.8462 52.3919 33.881 54.9027 33.881Z" fill="white"/>
<path d="M44.1475 34.9902C48.5111 35.2357 49.602 40.3599 44.6929 45.0296C38.1172 51.4357 33.2081 59.3599 29.7233 67.8811C29.7233 67.8811 27.9657 70.6872 25.4202 70.6144C15.5718 70.3266 28.4202 45.8448 41.3293 35.8721C42.1475 35.2902 42.6323 34.9781 44.1475 34.9902Z" fill="white"/>
</g>
</svg>
