<svg width="100" height="65" viewBox="0 0 100 65" fill="none" xmlns="http://www.w3.org/2000/svg">
<path d="M10.0695 2.82861H91.3244C95.3735 2.82861 98.7362 6.12273 98.7362 10.2404V54.505C98.7362 58.5541 95.4421 61.8482 91.3244 61.8482H10.0695C6.02046 61.8482 2.65771 58.5541 2.65771 54.505V10.1718C2.65771 6.12273 5.95183 2.82861 10.0695 2.82861V2.82861Z" fill="white"/>
<path fill-rule="evenodd" clip-rule="evenodd" d="M10.0696 3.80918C6.48749 3.80918 3.63828 6.6703 3.63828 10.1719V54.5052C3.63828 58.0009 6.5502 60.8679 10.0696 60.8679H91.3246C94.9068 60.8679 97.756 58.0068 97.756 54.5052V10.2406C97.756 6.67026 94.8381 3.80918 91.3246 3.80918H10.0696V3.80918ZM1.67749 10.1719C1.67749 5.57551 5.41649 1.84839 10.0696 1.84839H91.3246C95.9091 1.84839 99.7168 5.57555 99.7168 10.2406V54.5052C99.7168 59.1017 95.9777 62.8287 91.3246 62.8287H10.0696C5.49106 62.8287 1.67749 59.1076 1.67749 54.5052V10.1719Z" fill="#E1E1E1"/>
<path fill-rule="evenodd" clip-rule="evenodd" d="M44.3849 44.7329C44.6426 44.7329 44.8512 44.5241 44.8512 44.2664V29.1213C44.8512 26.5927 46.9012 24.5427 49.43 24.5423H49.4306L53.9012 24.5488C56.4226 24.5539 58.4639 26.5994 58.4639 29.1208V32.3445C58.4639 34.8735 56.4137 36.9237 53.8847 36.9237H47.5659C47.3083 36.9237 47.0996 37.1325 47.0996 37.3902C47.0996 37.6478 47.3083 37.8564 47.5659 37.8564H53.8847C56.9288 37.8564 59.3967 35.3886 59.3967 32.3445V29.1208C59.3967 26.0849 56.9388 23.6221 53.9032 23.616H53.9028L49.4314 23.6096H49.4306C46.3863 23.6096 43.9185 26.0772 43.9185 29.1213V44.2664C43.9185 44.5241 44.1273 44.7329 44.3849 44.7329V44.7329ZM64.1904 37.9243C64.4479 37.9243 64.6567 37.7155 64.6567 37.4578V26.1445C64.6567 24.7433 63.521 23.6074 62.1196 23.6074H60.18C59.9224 23.6074 59.7136 23.8162 59.7136 24.0737C59.7136 24.3313 59.9224 24.5402 60.18 24.5402H62.1196C63.0057 24.5402 63.7239 25.2584 63.7239 26.1445V37.4578C63.7239 37.7155 63.9328 37.9243 64.1904 37.9243Z" fill="#939598"/>
<path d="M63.7746 22.321L62.895 21.4414C62.6766 21.2232 62.6766 20.8693 62.895 20.651L63.774 19.7718C63.9927 19.5533 64.347 19.5533 64.5656 19.7718L65.4446 20.651C65.6631 20.8693 65.6631 21.2232 65.4446 21.4414L64.565 22.321C64.3468 22.5395 63.9929 22.5395 63.7746 22.321V22.321Z" fill="#32BCAD"/>
<path fill-rule="evenodd" clip-rule="evenodd" d="M78.7539 29.326C78.3532 29.7268 77.7036 29.7268 77.303 29.326L72.8035 24.8266C72.0163 24.0393 70.9487 23.5972 69.8353 23.5972H67.9118C67.6541 23.5972 67.4453 23.806 67.4453 24.0636C67.4453 24.3211 67.6541 24.5299 67.9118 24.5299H69.8353C70.7012 24.5299 71.5318 24.8738 72.1439 25.4862L76.6434 29.9854C77.4083 30.7505 78.6485 30.7507 79.4136 29.9856C79.4136 29.9854 79.4136 29.9856 79.4136 29.9856L83.8965 25.5027C84.5087 24.8905 85.339 24.5466 86.2051 24.5466H87.769C88.0265 24.5466 88.2353 24.3378 88.2353 24.0801C88.2353 23.8225 88.0265 23.6138 87.769 23.6138H86.2051C85.0918 23.6138 84.0241 24.056 83.2369 24.843L78.7539 29.326V29.326Z" fill="#939598"/>
<path fill-rule="evenodd" clip-rule="evenodd" d="M67.4453 37.3588C67.4453 37.6165 67.6541 37.8253 67.9118 37.8253H69.8353C70.9487 37.8253 72.0163 37.3831 72.8034 36.5959C72.8036 36.5959 72.8034 36.5959 72.8034 36.5959L77.303 32.0963C77.7036 31.6957 78.3532 31.6957 78.7539 32.0963L83.2369 36.5792C84.0241 37.3665 85.0918 37.8086 86.2051 37.8086H87.769C88.0265 37.8086 88.2353 37.5998 88.2353 37.3423C88.2353 37.0847 88.0265 36.8759 87.769 36.8759H86.2051C85.3392 36.8759 84.5087 36.532 83.8965 35.9198L79.4136 31.4369C78.6485 30.6718 77.4083 30.6718 76.6434 31.4369L72.1439 35.9363C71.5318 36.5484 70.7012 36.8925 69.8353 36.8925H67.9118C67.6541 36.8925 67.4453 37.1012 67.4453 37.3588V37.3588Z" fill="#939598"/>
<path d="M32.9163 40.2332C31.9508 40.2332 31.0428 39.8574 30.3602 39.1748L26.6692 35.484C26.4102 35.2242 25.9584 35.225 25.6994 35.484L21.9949 39.1883C21.3122 39.8707 20.4043 40.2466 19.4387 40.2466H18.7114L23.3859 44.9213C24.8459 46.3811 27.213 46.3811 28.673 44.9213L33.361 40.2332H32.9163ZM19.4387 27.1778C20.4043 27.1778 21.3122 27.5538 21.9949 28.2362L25.6992 31.9413C25.9661 32.208 26.4018 32.2091 26.6692 31.9409L30.36 28.2497C31.0428 27.5672 31.9508 27.1913 32.9163 27.1913H33.3608L28.673 22.5034C27.213 21.0434 24.8459 21.0434 23.3859 22.5034L18.7115 27.1778H19.4387V27.1778Z" fill="#32BCAD"/>
<path d="M37.2385 31.0689L34.4056 28.236C34.3432 28.2609 34.2756 28.2766 34.2044 28.2766H32.9164C32.2505 28.2766 31.5985 28.5466 31.1281 29.0174L27.4372 32.7083C27.0919 33.0536 26.6381 33.2266 26.1846 33.2266C25.7307 33.2266 25.2773 33.0536 24.9319 32.7087L21.2272 29.004C20.7566 28.533 20.1048 28.263 19.4388 28.263H17.8551C17.7876 28.263 17.7244 28.2472 17.6648 28.2246L14.8205 31.0689C13.3606 32.5287 13.3606 34.8958 14.8205 36.3558L17.6646 39.1999C17.7242 39.1776 17.7876 39.1615 17.8551 39.1615H19.4388C20.1048 39.1615 20.7566 38.8915 21.2272 38.4207L24.9315 34.7162C25.6011 34.0472 26.7683 34.047 27.4372 34.7166L31.1281 38.4072C31.5985 38.8779 32.2505 39.1481 32.9164 39.1481H34.2044C34.2758 39.1481 34.3432 39.1636 34.4056 39.1885L37.2385 36.3558C38.6985 34.8958 38.6985 32.5287 37.2385 31.0689V31.0689Z" fill="#32BCAD"/>
<path d="M48.2303 42.9792C48.0213 42.9792 47.7778 43.0294 47.5372 43.0849V44.0078C47.704 44.0688 47.8942 44.098 48.0768 44.098C48.5395 44.098 48.7591 43.9419 48.7591 43.5345C48.7591 43.151 48.5793 42.9792 48.2303 42.9792V42.9792ZM47.3811 44.6931V42.868H47.508L47.5213 42.9474C47.7356 42.8972 48.0317 42.831 48.2433 42.831C48.4154 42.831 48.5793 42.8572 48.7168 42.9684C48.8756 43.0982 48.9258 43.307 48.9258 43.5345C48.9258 43.7725 48.8464 43.9974 48.6297 44.1217C48.4788 44.2063 48.2752 44.2406 48.0927 44.2406C47.9048 44.2406 47.725 44.2114 47.5372 44.1561V44.6931H47.3811V44.6931ZM50.0878 42.9737C49.6248 42.9737 49.4186 43.1192 49.4186 43.5264C49.4186 43.9206 49.6223 44.098 50.0878 44.098C50.548 44.098 50.7542 43.9551 50.7542 43.5476C50.7542 43.1537 50.5507 42.9737 50.0878 42.9737ZM50.6829 44.098C50.5293 44.2088 50.3233 44.2406 50.0878 44.2406C49.8472 44.2406 49.6407 44.2063 49.4899 44.098C49.3207 43.979 49.2519 43.7829 49.2519 43.5372C49.2519 43.2937 49.3207 43.0957 49.4899 42.9737C49.6407 42.8653 49.8472 42.831 50.0878 42.831C50.3258 42.831 50.5293 42.8653 50.6829 42.9737C50.8548 43.0957 50.9209 43.2937 50.9209 43.5345C50.9209 43.7804 50.8521 43.979 50.6829 44.098ZM52.8738 44.2037L52.358 43.0957H52.3474L51.8395 44.2037H51.6995L51.1493 42.868H51.3211L51.7788 43.9892H51.7893L52.2866 42.868H52.4295L52.9399 43.9892H52.9507L53.3976 42.868H53.5642L53.014 44.2037H52.8738ZM54.5619 42.971C54.1335 42.971 53.988 43.1614 53.9615 43.4366H55.1623C55.1491 43.1325 54.9931 42.971 54.5619 42.971ZM54.5566 44.2408C54.2999 44.2408 54.1335 44.2037 54.0011 44.0923C53.845 43.9574 53.7923 43.7619 53.7923 43.5372C53.7923 43.3229 53.8637 43.0957 54.0409 42.9659C54.1889 42.8627 54.3715 42.831 54.5619 42.831C54.7338 42.831 54.9323 42.8494 55.0962 42.9606C55.2891 43.09 55.3264 43.3176 55.3264 43.5766H53.9562C53.9615 43.8517 54.0515 44.0953 54.5697 44.0953C54.8158 44.0953 55.0458 44.0555 55.2603 44.0184V44.1586C55.038 44.1984 54.7919 44.2408 54.5566 44.2408V44.2408ZM55.7742 44.2037V42.868H55.9011L55.9144 42.9474C56.1974 42.8759 56.3297 42.831 56.5784 42.831H56.597V42.9792H56.5599C56.3509 42.9792 56.224 43.008 55.9303 43.0849V44.2037H55.7742V44.2037ZM57.5033 42.971C57.0748 42.971 56.9293 43.1614 56.9027 43.4366H58.1037C58.0905 43.1325 57.9344 42.971 57.5033 42.971ZM57.498 44.2408C57.2413 44.2408 57.0748 44.2037 56.9425 44.0923C56.7864 43.9574 56.7335 43.7619 56.7335 43.5372C56.7335 43.3229 56.805 43.0957 56.9823 42.9659C57.1303 42.8627 57.3129 42.831 57.5033 42.831C57.6752 42.831 57.8737 42.8494 58.0376 42.9606C58.2305 43.09 58.2678 43.3176 58.2678 43.5766H56.8976C56.9027 43.8517 56.9929 44.0953 57.5111 44.0953C57.7572 44.0953 57.9872 44.0555 58.2017 44.0184V44.1586C57.9793 44.1984 57.7333 44.2408 57.498 44.2408V44.2408ZM59.9772 43.0639C59.8107 43.0029 59.6201 42.9737 59.4378 42.9737C58.9748 42.9737 58.7552 43.13 58.7552 43.5372C58.7552 43.9233 58.935 44.0925 59.2842 44.0925C59.4933 44.0925 59.7366 44.0421 59.9772 43.9894V43.0639V43.0639ZM60.0064 44.2037L59.9931 44.1243C59.7789 44.1745 59.4827 44.2408 59.2711 44.2408C59.0991 44.2408 58.935 44.217 58.7976 44.1031C58.6389 43.9733 58.5886 43.7647 58.5886 43.5372C58.5886 43.2992 58.668 43.0741 58.8848 42.9525C59.0356 42.8653 59.2393 42.831 59.4244 42.831C59.6097 42.831 59.7893 42.8627 59.9772 42.9157V42.3047H60.1335V44.2037H60.0064V44.2037ZM62.4215 42.9792C62.2125 42.9792 61.9691 43.0294 61.7286 43.0849V44.0053C61.8978 44.0688 62.0856 44.098 62.2682 44.098C62.7309 44.098 62.9505 43.9419 62.9505 43.5345C62.9505 43.151 62.7707 42.9792 62.4215 42.9792V42.9792ZM62.8209 44.1217C62.6701 44.2063 62.4664 44.2406 62.284 44.2406C62.0856 44.2406 61.8874 44.2063 61.6862 44.14L61.6784 44.2037H61.5723V42.3047H61.7286V42.9419C61.9427 42.8945 62.2311 42.831 62.4346 42.831C62.6068 42.831 62.7707 42.8572 62.9082 42.9684C63.067 43.0982 63.1172 43.307 63.1172 43.5345C63.1172 43.7725 63.0376 43.9974 62.8209 44.1217V44.1217ZM63.3242 44.7166V44.5713C63.4009 44.5792 63.4725 44.5847 63.5227 44.5847C63.7158 44.5847 63.8321 44.529 63.9405 44.3094L63.9907 44.2037L63.2927 42.8678H63.4725L64.0703 44.021H64.0807L64.6495 42.8678H64.8266L64.0754 44.3676C63.938 44.6402 63.7897 44.73 63.5172 44.73C63.4564 44.73 63.3903 44.7247 63.3242 44.7166ZM66.9776 43.4419H66.4591V43.9102H66.9801C67.3372 43.9102 67.4721 43.8704 67.4721 43.6749C67.4721 43.4655 67.2872 43.4419 66.9776 43.4419ZM66.8823 42.6827H66.4591V43.1588H66.885C67.2368 43.1588 67.377 43.1166 67.377 42.9182C67.377 42.7066 67.1997 42.6827 66.8823 42.6827ZM67.6866 44.0768C67.496 44.1986 67.2658 44.2037 66.8452 44.2037H66.0544V42.3919H66.8268C67.1891 42.3919 67.4113 42.397 67.5964 42.5084C67.7288 42.5878 67.7817 42.7094 67.7817 42.868C67.7817 43.0584 67.7023 43.1853 67.496 43.27V43.2804C67.7288 43.3335 67.8795 43.4527 67.8795 43.7092C67.8795 43.8835 67.816 43.9974 67.6866 44.0768V44.0768ZM69.4617 43.6429C69.3056 43.6296 69.147 43.6217 68.9803 43.6217C68.708 43.6217 68.6127 43.6774 68.6127 43.8015C68.6127 43.918 68.6921 43.9815 68.9009 43.9815C69.0756 43.9815 69.2846 43.9419 69.4617 43.9019V43.6429V43.6429ZM69.5411 44.2037L69.5305 44.1243C69.3031 44.18 69.0386 44.2406 68.8058 44.2406C68.6629 44.2406 68.5095 44.2221 68.4009 44.1425C68.3007 44.0713 68.2531 43.9549 68.2531 43.82C68.2531 43.6692 68.3191 43.5292 68.4778 43.4578C68.618 43.3915 68.8058 43.3865 68.9778 43.3865C69.118 43.3865 69.3056 43.3943 69.4617 43.4049V43.381C69.4617 43.1721 69.3242 43.1033 68.9486 43.1033C68.8033 43.1033 68.6258 43.111 68.4566 43.127V42.8572C68.6444 42.8416 68.856 42.831 69.0307 42.831C69.2635 42.831 69.504 42.8494 69.6521 42.9551C69.8056 43.0637 69.8346 43.2147 69.8346 43.4127V44.2037H69.5411ZM71.5786 44.2037V43.4655C71.5786 43.2223 71.4544 43.1353 71.2321 43.1353C71.0682 43.1353 70.8619 43.1774 70.6874 43.2198V44.2037H70.3144V42.868H70.6186L70.6317 42.9525C70.8672 42.8919 71.129 42.831 71.346 42.831C71.5099 42.831 71.6766 42.8547 71.8035 42.9684C71.9091 43.0637 71.9489 43.1957 71.9489 43.3865V44.2037H71.5786V44.2037ZM73.0027 44.2406C72.8307 44.2406 72.6427 44.2168 72.5052 44.1006C72.3413 43.9682 72.2937 43.7594 72.2937 43.5343C72.2937 43.3229 72.3625 43.0925 72.5662 42.9633C72.7327 42.8545 72.9391 42.831 73.1535 42.831C73.3068 42.831 73.4576 42.8416 73.624 42.8572V43.1429C73.4891 43.13 73.3278 43.1192 73.1984 43.1192C72.8438 43.1192 72.6772 43.2304 72.6772 43.5372C72.6772 43.8255 72.8015 43.9496 73.0925 43.9496C73.2617 43.9496 73.4601 43.918 73.6533 43.881V44.1561C73.4442 44.1986 73.2168 44.2406 73.0027 44.2406V44.2406ZM74.7548 43.1112C74.4003 43.1112 74.2442 43.2223 74.2442 43.5266C74.2442 43.8308 74.3978 43.9606 74.7548 43.9606C75.1066 43.9606 75.2599 43.8517 75.2599 43.5476C75.2599 43.2435 75.1093 43.1112 74.7548 43.1112ZM75.395 44.1006C75.2309 44.2114 75.0168 44.2408 74.7548 44.2408C74.4876 44.2408 74.2735 44.2088 74.1121 44.1006C73.927 43.979 73.8607 43.7778 73.8607 43.5372C73.8607 43.2965 73.927 43.0927 74.1121 42.971C74.2735 42.8627 74.4876 42.831 74.7548 42.831C75.0193 42.831 75.2309 42.8627 75.395 42.971C75.5799 43.0927 75.6437 43.2964 75.6437 43.5343C75.6437 43.7753 75.5774 43.979 75.395 44.1006ZM77.7968 44.2406C77.5721 44.2406 77.3288 44.2037 77.146 44.0527C76.9293 43.8729 76.8633 43.5953 76.8633 43.2963C76.8633 43.0294 76.9478 42.7119 77.2307 42.5267C77.4501 42.3841 77.7227 42.3549 77.9978 42.3549C78.1989 42.3549 78.405 42.368 78.6301 42.3867V42.7119C78.437 42.6961 78.199 42.6827 78.0139 42.6827C77.498 42.6827 77.2784 42.8784 77.2784 43.2963C77.2784 43.7223 77.4821 43.9127 77.8629 43.9127C78.1115 43.9127 78.3891 43.8623 78.6697 43.8043V44.1268C78.3891 44.1825 78.0956 44.2406 77.7968 44.2406V44.2406ZM79.7654 43.069C79.456 43.069 79.337 43.1804 79.3131 43.3839H80.2125C80.2019 43.167 80.0748 43.069 79.7654 43.069ZM79.7099 44.2408C79.4903 44.2408 79.2921 44.2143 79.1438 44.0925C78.9852 43.9606 78.9297 43.7619 78.9297 43.5343C78.9297 43.3308 78.9958 43.1035 79.1811 42.971C79.3448 42.8547 79.5539 42.831 79.7654 42.831C79.956 42.831 80.1807 42.8521 80.3446 42.9659C80.5589 43.1166 80.5776 43.3496 80.5801 43.6245H79.3105C79.3186 43.8282 79.427 43.9606 79.8025 43.9606C80.0352 43.9606 80.2944 43.9261 80.514 43.8915V44.1535C80.2574 44.1959 79.9772 44.2408 79.7099 44.2408V44.2408ZM82.2393 44.2037V43.4655C82.2393 43.2223 82.1152 43.1353 81.8929 43.1353C81.7289 43.1353 81.5227 43.1774 81.3482 43.2198V44.2037H80.9752V42.868H81.2793L81.2925 42.9525C81.528 42.8919 81.7897 42.831 82.0068 42.831C82.1707 42.831 82.3374 42.8547 82.4642 42.9684C82.5701 43.0637 82.6097 43.1957 82.6097 43.3865V44.2037H82.2393V44.2037ZM83.6713 44.2406C83.4915 44.2406 83.3274 44.1904 83.2376 44.0502C83.1715 43.9549 83.1395 43.8255 83.1395 43.6455V43.1455H82.8697V42.868H83.1395L83.1793 42.4633H83.5099V42.868H84.0362V43.1455H83.5099V43.5743C83.5099 43.6774 83.5178 43.7647 83.547 43.8282C83.5868 43.918 83.6739 43.9523 83.7903 43.9523C83.8776 43.9523 83.9835 43.939 84.0574 43.9261V44.1929C83.9358 44.2168 83.7954 44.2406 83.6713 44.2406ZM84.4001 44.2037V42.868H84.7042L84.7176 42.9525C84.9637 42.8839 85.146 42.831 85.3788 42.831C85.3893 42.831 85.4054 42.831 85.4264 42.8335V43.151C85.384 43.1484 85.3339 43.1484 85.2968 43.1484C85.1142 43.1484 84.9768 43.1694 84.7731 43.2172V44.2037H84.4001V44.2037ZM86.7823 43.6429C86.6262 43.6296 86.4676 43.6217 86.3007 43.6217C86.0286 43.6217 85.9331 43.6774 85.9331 43.8015C85.9331 43.918 86.0127 43.9815 86.2215 43.9815C86.396 43.9815 86.605 43.9419 86.7823 43.9019V43.6429V43.6429ZM86.8615 44.2037L86.8511 44.1243C86.6235 44.18 86.3589 44.2406 86.1262 44.2406C85.9835 44.2406 85.8299 44.2221 85.7215 44.1425C85.6211 44.0713 85.5735 43.9549 85.5735 43.82C85.5735 43.6692 85.6395 43.5292 85.7982 43.4578C85.9384 43.3915 86.1262 43.3865 86.2982 43.3865C86.4384 43.3865 86.6262 43.3943 86.7823 43.4049V43.381C86.7823 43.1721 86.6446 43.1033 86.2691 43.1033C86.1237 43.1033 85.9464 43.111 85.777 43.127V42.8572C85.9648 42.8416 86.1766 42.831 86.3511 42.831C86.5839 42.831 86.8246 42.8494 86.9727 42.9551C87.126 43.0637 87.1552 43.2147 87.1552 43.4127V44.2037H86.8615V44.2037ZM87.6348 42.3047H88.0078V44.2037H87.6348V42.3047Z" fill="#939598"/>
</svg>
