<svg width="50" height="50" viewBox="0 0 50 50" fill="none" xmlns="http://www.w3.org/2000/svg">
<path d="M45.8332 30.9583V30.8542C45.808 30.4518 45.7381 30.0536 45.6248 29.6667L42.2082 9.39584C41.9641 7.92074 41.1993 6.58202 40.0526 5.62259C38.9059 4.66317 37.4532 4.14661 35.9582 4.16667H13.9373C12.4602 4.17145 11.0325 4.69927 9.90743 5.65651C8.7824 6.61374 8.03277 7.93851 7.7915 9.39584L4.4165 29.625C4.30325 30.0119 4.23338 30.4102 4.20817 30.8125V30.9167C4.1665 31.0625 4.1665 31.25 4.1665 31.25V39.5833C4.1665 41.2409 4.82498 42.8307 5.99709 44.0028C7.16919 45.1749 8.7589 45.8333 10.4165 45.8333H39.5832C41.2408 45.8333 42.8305 45.1749 44.0026 44.0028C45.1747 42.8307 45.8332 41.2409 45.8332 39.5833V31.25C45.8332 31.25 45.8332 31.0625 45.8332 30.9583ZM11.8957 10.0625C11.98 9.57335 12.2362 9.13038 12.6182 8.81336C13.0001 8.49635 13.4827 8.32612 13.979 8.33334H36.0623C36.5587 8.32612 37.0412 8.49635 37.4232 8.81336C37.8051 9.13038 38.0613 9.57335 38.1457 10.0625L40.6457 25.1042C40.2957 25.0349 39.9399 25.0001 39.5832 25H10.4165C10.0737 25.0027 9.73194 25.0376 9.39567 25.1042L11.8957 10.0625ZM41.6665 39.5833C41.6665 40.1359 41.447 40.6658 41.0563 41.0565C40.6656 41.4472 40.1357 41.6667 39.5832 41.6667H10.4165C9.86397 41.6667 9.33407 41.4472 8.94337 41.0565C8.55266 40.6658 8.33317 40.1359 8.33317 39.5833V31.4167L8.49984 30.4583C8.65613 30.0779 8.92154 29.7522 9.26262 29.5223C9.60371 29.2925 10.0052 29.1687 10.4165 29.1667H39.5832C39.9945 29.1687 40.396 29.2925 40.7371 29.5223C41.0781 29.7522 41.3435 30.0779 41.4998 30.4583L41.6665 31.4167V39.5833ZM35.4165 33.3333C35.0045 33.3333 34.6017 33.4555 34.2591 33.6844C33.9165 33.9134 33.6494 34.2387 33.4918 34.6194C33.3341 35.0001 33.2928 35.419 33.3732 35.8231C33.4536 36.2272 33.652 36.5985 33.9434 36.8898C34.2347 37.1812 34.6059 37.3796 35.0101 37.46C35.4142 37.5404 35.8331 37.4991 36.2138 37.3414C36.5944 37.1837 36.9198 36.9167 37.1487 36.5741C37.3777 36.2315 37.4998 35.8287 37.4998 35.4167C37.4998 34.8641 37.2803 34.3342 36.8896 33.9435C36.4989 33.5528 35.969 33.3333 35.4165 33.3333Z" fill="black"/>
</svg>
