<svg width="50" height="50" viewBox="0 0 50 50" fill="none" xmlns="http://www.w3.org/2000/svg">
<path d="M32.729 26.4792C34.7715 24.8722 36.2623 22.6686 36.9941 20.1749C37.7259 17.6812 37.6622 15.0214 36.8119 12.5656C35.9617 10.1097 34.3671 7.97998 32.25 6.47261C30.133 4.96524 27.5987 4.15521 24.9999 4.15521C22.401 4.15521 19.8668 4.96524 17.7497 6.47261C15.6327 7.97998 14.0381 10.1097 13.1878 12.5656C12.3375 15.0214 12.2739 17.6812 13.0056 20.1749C13.7374 22.6686 15.2282 24.8722 17.2707 26.4792C13.7709 27.8813 10.7171 30.207 8.43506 33.2082C6.15299 36.2093 4.72813 39.7736 4.31237 43.5208C4.28228 43.7944 4.30636 44.0713 4.38326 44.3355C4.46015 44.5998 4.58834 44.8464 4.76052 45.0611C5.10824 45.4948 5.614 45.7726 6.16654 45.8333C6.71907 45.8941 7.27312 45.7329 7.7068 45.3852C8.14048 45.0375 8.41826 44.5317 8.47904 43.9792C8.93651 39.9066 10.8784 36.1454 13.9337 33.4141C16.9889 30.6829 20.9434 29.173 25.0415 29.173C29.1397 29.173 33.0941 30.6829 36.1494 33.4141C39.2047 36.1454 41.1466 39.9066 41.604 43.9792C41.6607 44.4911 41.9049 44.9639 42.2897 45.3063C42.6744 45.6487 43.1723 45.8365 43.6874 45.8333H43.9165C44.4627 45.7705 44.9618 45.4944 45.3052 45.0651C45.6486 44.6358 45.8084 44.0883 45.7499 43.5417C45.3321 39.7838 43.8996 36.2104 41.6058 33.2046C39.312 30.1988 36.2434 27.8739 32.729 26.4792V26.4792ZM24.9999 25C23.3517 25 21.7405 24.5113 20.3701 23.5956C18.9997 22.6799 17.9316 21.3784 17.3009 19.8557C16.6701 18.333 16.5051 16.6574 16.8267 15.0409C17.1482 13.4244 17.9419 11.9395 19.1073 10.7741C20.2728 9.60867 21.7576 8.815 23.3741 8.49345C24.9906 8.17191 26.6662 8.33694 28.1889 8.96767C29.7116 9.5984 31.0131 10.6665 31.9288 12.0369C32.8445 13.4073 33.3332 15.0185 33.3332 16.6667C33.3332 18.8768 32.4552 20.9964 30.8924 22.5592C29.3296 24.122 27.21 25 24.9999 25Z" fill="black"/>
</svg>
