<svg width="100" height="100" viewBox="0 0 100 100" fill="none" xmlns="http://www.w3.org/2000/svg">
<path d="M33.3335 30.2083C35.0594 30.2083 36.4585 31.6074 36.4585 33.3333V38.5417H41.6668C43.3927 38.5417 44.7918 39.9408 44.7918 41.6667C44.7918 43.3926 43.3927 44.7917 41.6668 44.7917H36.4585V50C36.4585 51.7259 35.0594 53.125 33.3335 53.125C31.6076 53.125 30.2085 51.7259 30.2085 50V44.7917H25.0002C23.2743 44.7917 21.8752 43.3926 21.8752 41.6667C21.8752 39.9408 23.2743 38.5417 25.0002 38.5417H30.2085V33.3333C30.2085 31.6074 31.6076 30.2083 33.3335 30.2083Z" fill="black"/>
<path d="M70.8335 48.9583C70.8335 46.6571 68.968 44.7917 66.6668 44.7917C64.3656 44.7917 62.5002 46.6571 62.5002 48.9583V50C62.5002 52.3012 64.3656 54.1667 66.6668 54.1667C68.968 54.1667 70.8335 52.3012 70.8335 50V48.9583Z" fill="black"/>
<path d="M66.6668 29.1667C68.968 29.1667 70.8335 31.0321 70.8335 33.3333V34.375C70.8335 36.6762 68.968 38.5417 66.6668 38.5417C64.3656 38.5417 62.5002 36.6762 62.5002 34.375V33.3333C62.5002 31.0321 64.3656 29.1667 66.6668 29.1667Z" fill="black"/>
<path d="M79.1668 41.6667C79.1668 43.9679 77.3014 45.8333 75.0002 45.8333H73.9585C71.6573 45.8333 69.7918 43.9679 69.7918 41.6667C69.7918 39.3655 71.6573 37.5 73.9585 37.5H75.0002C77.3014 37.5 79.1668 39.3655 79.1668 41.6667Z" fill="black"/>
<path d="M59.3752 45.8333C61.6764 45.8333 63.5418 43.9679 63.5418 41.6667C63.5418 39.3655 61.6764 37.5 59.3752 37.5H58.3335C56.0323 37.5 54.1668 39.3655 54.1668 41.6667C54.1668 43.9679 56.0323 45.8333 58.3335 45.8333H59.3752Z" fill="black"/>
<path fill-rule="evenodd" clip-rule="evenodd" d="M53.1252 12.5C53.1252 10.7741 51.7261 9.375 50.0002 9.375C48.2743 9.375 46.8752 10.7741 46.8752 12.5V18.6953C40.8789 18.7773 34.8851 19.0951 28.9076 19.6488L27.5259 19.7768C17.5605 20.6999 9.88678 28.9753 9.71719 38.9819L9.6668 41.9547C9.4697 53.5842 10.4071 65.2052 12.4658 76.6527C13.4864 82.3284 18.4253 86.4583 24.192 86.4583H25.1131C30.2604 86.4583 34.9242 83.4249 37.0111 78.7196L41.4303 68.7559C44.7266 61.3239 55.2738 61.3239 58.5701 68.7559L62.9892 78.7196C65.0762 83.4249 69.74 86.4583 74.8873 86.4583H75.8083C81.575 86.4583 86.5139 82.3284 87.5346 76.6528C89.5932 65.2052 90.5307 53.5842 90.3335 41.9547L90.2832 38.9819C90.1136 28.9753 82.4399 20.6999 72.4745 19.7768L71.0928 19.6488C65.1153 19.0951 59.1214 18.7773 53.1252 18.6953V12.5ZM29.484 25.8721C43.1322 24.6079 56.8681 24.6079 70.5163 25.8721L71.898 26.0001C78.6891 26.6292 83.9185 32.2686 84.0341 39.0878L84.0844 42.0606C84.2747 53.2838 83.37 64.4989 81.3833 75.5466C80.898 78.2449 78.55 80.2083 75.8083 80.2083H74.8873C72.2116 80.2083 69.7873 78.6315 68.7025 76.1857L64.2833 66.222C58.7895 53.8352 41.2109 53.8352 35.717 66.2219L31.2978 76.1856C30.213 78.6315 27.7887 80.2083 25.1131 80.2083H24.192C21.4504 80.2083 19.1023 78.2449 18.6171 75.5465C16.6304 64.4989 15.7257 53.2838 15.9159 42.0606L15.9663 39.0878C16.0819 32.2686 21.3112 26.6292 28.1024 26.0001L29.484 25.8721Z" fill="black"/>
</svg>
