<svg width="200" height="200" viewBox="0 0 200 200" fill="none" xmlns="http://www.w3.org/2000/svg">
<path fill-rule="evenodd" clip-rule="evenodd" d="M103.03 200C156.585 200 200 156.585 200 103.03C200 49.4754 156.585 6.0606 103.03 6.0606C49.4754 6.0606 6.06055 49.4754 6.06055 103.03C6.06055 156.585 49.4754 200 103.03 200Z" fill="black"/>
<path fill-rule="evenodd" clip-rule="evenodd" d="M96.9697 193.939C150.525 193.939 193.939 150.525 193.939 96.9697C193.939 43.4148 150.525 0 96.9697 0C43.4148 0 0 43.4148 0 96.9697C0 150.525 43.4148 193.939 96.9697 193.939Z" fill="white"/>
<path fill-rule="evenodd" clip-rule="evenodd" d="M96.9683 187.882C147.176 187.882 187.878 147.181 187.878 96.9728C187.878 46.765 147.176 6.06356 96.9683 6.06356C46.7605 6.06356 6.05908 46.765 6.05908 96.9728C6.05908 147.181 46.7605 187.882 96.9683 187.882Z" fill="black"/>
<path fill-rule="evenodd" clip-rule="evenodd" d="M96.9738 86.6952C116.475 86.6952 136.339 104.558 136.339 123.072C136.339 141.585 116.475 148.475 96.9738 148.475C77.4727 148.475 57.6083 141.585 57.6083 123.072C57.6083 104.558 77.4727 86.6952 96.9738 86.6952Z" fill="black" stroke="white" stroke-width="1.99856"/>
<path fill-rule="evenodd" clip-rule="evenodd" d="M96.9607 93.7974C108.556 93.7974 117.956 84.3349 117.956 72.6623C117.956 60.9898 108.556 51.5273 96.9607 51.5273C85.3655 51.5273 75.9658 60.9898 75.9658 72.6623C75.9658 84.3349 85.3655 93.7974 96.9607 93.7974Z" fill="black" stroke="white" stroke-width="2.00434"/>
<path fill-rule="evenodd" clip-rule="evenodd" d="M54.1016 33.7783C56.6124 33.7783 58.6479 31.7435 58.6479 29.2334C58.6479 26.7233 56.6124 24.6885 54.1016 24.6885C51.5907 24.6885 49.5553 26.7233 49.5553 29.2334C49.5553 31.7435 51.5907 33.7783 54.1016 33.7783Z" fill="#E5E5E5"/>
<path d="M43.3464 34.8874C47.71 35.1329 48.8009 40.2571 43.8918 44.9268C37.2858 51.342 32.3464 59.3601 28.9222 67.7753C28.9222 67.7753 27.8616 69.7571 26.1343 70.3026C22.6494 71.3965 19.1343 67.8086 20.9828 63.1056C25.2555 52.5026 31.71 42.5935 40.5282 35.7693C41.3464 35.1874 41.8312 34.8753 43.3464 34.8874Z" fill="#E5E5E5"/>
</svg>
