<svg width="100" height="100" viewBox="0 0 100 100" fill="none" xmlns="http://www.w3.org/2000/svg">
<path d="M83.3332 33.3333L58.3332 11.4167C56.0415 9.36685 53.0746 8.23361 49.9999 8.23361C46.9252 8.23361 43.9583 9.36685 41.6666 11.4167L16.6666 33.3333C15.3431 34.517 14.287 35.969 13.5685 37.5927C12.8501 39.2164 12.4858 40.9745 12.4999 42.75V79.1667C12.4999 82.4819 13.8169 85.6613 16.1611 88.0055C18.5053 90.3497 21.6847 91.6667 24.9999 91.6667H74.9999C78.3151 91.6667 81.4945 90.3497 83.8388 88.0055C86.183 85.6613 87.4999 82.4819 87.4999 79.1667V42.7083C87.5081 40.9398 87.1409 39.1897 86.4227 37.5737C85.7044 35.9576 84.6514 34.5123 83.3332 33.3333V33.3333ZM58.3332 83.3333H41.6666V62.5C41.6666 61.3949 42.1056 60.3351 42.887 59.5537C43.6684 58.7723 44.7282 58.3333 45.8332 58.3333H54.1666C55.2716 58.3333 56.3315 58.7723 57.1129 59.5537C57.8943 60.3351 58.3332 61.3949 58.3332 62.5V83.3333ZM79.1666 79.1667C79.1666 80.2717 78.7276 81.3315 77.9462 82.1129C77.1648 82.8943 76.105 83.3333 74.9999 83.3333H66.6666V62.5C66.6666 59.1848 65.3496 56.0054 63.0054 53.6612C60.6612 51.317 57.4818 50 54.1666 50H45.8332C42.518 50 39.3386 51.317 36.9944 53.6612C34.6502 56.0054 33.3332 59.1848 33.3332 62.5V83.3333H24.9999C23.8948 83.3333 22.835 82.8943 22.0536 82.1129C21.2722 81.3315 20.8332 80.2717 20.8332 79.1667V42.7083C20.834 42.1167 20.9607 41.5321 21.205 40.9932C21.4492 40.4544 21.8055 39.9738 22.2499 39.5833L47.2499 17.7083C48.0103 17.0403 48.9878 16.6719 49.9999 16.6719C51.012 16.6719 51.9895 17.0403 52.7499 17.7083L77.7499 39.5833C78.1944 39.9738 78.5506 40.4544 78.7948 40.9932C79.0391 41.5321 79.1658 42.1167 79.1666 42.7083V79.1667Z" fill="black"/>
</svg>
