<svg width="100" height="100" viewBox="0 0 100 100" fill="none" xmlns="http://www.w3.org/2000/svg">
<path fill-rule="evenodd" clip-rule="evenodd" d="M51.5151 100C78.2926 100 100 78.2926 100 51.5151C100 24.7377 78.2926 3.03027 51.5151 3.03027C24.7377 3.03027 3.03027 24.7377 3.03027 51.5151C3.03027 78.2926 24.7377 100 51.5151 100Z" fill="black"/>
<path fill-rule="evenodd" clip-rule="evenodd" d="M48.4849 96.9697C75.2623 96.9697 96.9697 75.2623 96.9697 48.4849C96.9697 21.7074 75.2623 0 48.4849 0C21.7074 0 0 21.7074 0 48.4849C0 75.2623 21.7074 96.9697 48.4849 96.9697Z" fill="#808080"/>
<path fill-rule="evenodd" clip-rule="evenodd" d="M48.4839 93.941C73.5878 93.941 93.9386 73.5903 93.9386 48.4864C93.9386 23.3825 73.5878 3.03174 48.4839 3.03174C23.38 3.03174 3.0293 23.3825 3.0293 48.4864C3.0293 73.5903 23.38 93.941 48.4839 93.941Z" fill="black"/>
<path fill-rule="evenodd" clip-rule="evenodd" d="M48.4865 43.3477C58.237 43.3477 68.1692 52.2793 68.1692 61.536C68.1692 70.7928 58.237 74.2374 48.4865 74.2374C38.7359 74.2374 28.8037 70.7928 28.8037 61.536C28.8037 52.2793 38.7359 43.3477 48.4865 43.3477Z" fill="black" stroke="white" stroke-width="5"/>
<path fill-rule="evenodd" clip-rule="evenodd" d="M48.4804 46.8987C54.2779 46.8987 58.9778 42.1675 58.9778 36.3312C58.9778 30.4949 54.2779 25.7637 48.4804 25.7637C42.6828 25.7637 37.9829 30.4949 37.9829 36.3312C37.9829 42.1675 42.6828 46.8987 48.4804 46.8987Z" fill="black" stroke="white" stroke-width="5"/>
<path fill-rule="evenodd" clip-rule="evenodd" d="M27.0515 16.8891C28.3069 16.8891 29.3246 15.8717 29.3246 14.6167C29.3246 13.3616 28.3069 12.3442 27.0515 12.3442C25.796 12.3442 24.7783 13.3616 24.7783 14.6167C24.7783 15.8717 25.796 16.8891 27.0515 16.8891Z" fill="white"/>
<path d="M21.674 17.4438C23.8558 17.5665 24.4013 20.1286 21.9467 22.4635C18.6437 25.671 16.174 29.6801 14.4619 33.8877C14.4619 33.8877 13.9316 34.8786 13.0679 35.1513C11.3255 35.6983 9.56794 33.9044 10.4922 31.5529C12.6285 26.2513 15.8558 21.2968 20.2649 17.8847C20.674 17.5938 20.9164 17.4377 21.674 17.4438Z" fill="white"/>
</svg>
