<svg width="200" height="200" viewBox="0 0 200 200" fill="none" xmlns="http://www.w3.org/2000/svg">
<path fill-rule="evenodd" clip-rule="evenodd" d="M103.03 200C156.585 200 200 156.585 200 103.03C200 49.4754 156.585 6.06055 103.03 6.06055C49.4754 6.06055 6.06055 49.4754 6.06055 103.03C6.06055 156.585 49.4754 200 103.03 200Z" fill="black"/>
<path fill-rule="evenodd" clip-rule="evenodd" d="M96.9697 193.939C150.525 193.939 193.939 150.525 193.939 96.9697C193.939 43.4148 150.525 0 96.9697 0C43.4148 0 0 43.4148 0 96.9697C0 150.525 43.4148 193.939 96.9697 193.939Z" fill="#808080"/>
<path fill-rule="evenodd" clip-rule="evenodd" d="M96.9683 187.882C147.176 187.882 187.878 147.181 187.878 96.9727C187.878 46.7649 147.176 6.06348 96.9683 6.06348C46.7605 6.06348 6.05908 46.7649 6.05908 96.9727C6.05908 147.181 46.7605 187.882 96.9683 187.882Z" fill="black"/>
<path fill-rule="evenodd" clip-rule="evenodd" d="M96.9734 86.6953C116.474 86.6953 136.339 104.559 136.339 123.072C136.339 141.586 116.474 148.475 96.9734 148.475C77.4724 148.475 57.6079 141.586 57.6079 123.072C57.6079 104.559 77.4724 86.6953 96.9734 86.6953Z" fill="black" stroke="white" stroke-width="5"/>
<path fill-rule="evenodd" clip-rule="evenodd" d="M96.9607 93.7974C108.556 93.7974 117.956 84.3349 117.956 72.6624C117.956 60.9898 108.556 51.5273 96.9607 51.5273C85.3655 51.5273 75.9658 60.9898 75.9658 72.6624C75.9658 84.3349 85.3655 93.7974 96.9607 93.7974Z" fill="black" stroke="white" stroke-width="5"/>
<path fill-rule="evenodd" clip-rule="evenodd" d="M54.1029 33.7783C56.6138 33.7783 58.6492 31.7434 58.6492 29.2334C58.6492 26.7233 56.6138 24.6885 54.1029 24.6885C51.5921 24.6885 49.5566 26.7233 49.5566 29.2334C49.5566 31.7434 51.5921 33.7783 54.1029 33.7783Z" fill="white"/>
<path d="M43.3475 34.8875C47.7111 35.133 48.802 40.2572 43.8929 44.9269C37.2869 51.3421 32.3475 59.3602 28.9233 67.7754C28.9233 67.7754 27.8627 69.7572 26.1354 70.3027C22.6505 71.3966 19.1354 67.8087 20.9839 63.1057C25.2566 52.5027 31.7111 42.5936 40.5293 35.7694C41.3475 35.1875 41.8323 34.8754 43.3475 34.8875Z" fill="white"/>
</svg>
