<svg width="200" height="200" viewBox="0 0 200 200" fill="none" xmlns="http://www.w3.org/2000/svg">
<path fill-rule="evenodd" clip-rule="evenodd" d="M43.5492 68.0293C27.799 64.2609 16.1294 50.6843 16.1294 34.5365C16.1294 15.4724 32.3878 0 52.4204 0C72.453 0 88.7113 15.4724 88.7113 34.5365C88.7113 50.6843 77.0337 64.2609 61.2915 68.0293V125.137H43.5492V68.0293Z" fill="#DADADA"/>
<path fill-rule="evenodd" clip-rule="evenodd" d="M200 149.352C200 140.034 192.048 132.467 182.255 132.467H17.7367C7.94423 132.467 0 140.034 0 149.352V183.115C0 192.44 7.94423 200 17.7367 200H182.255C192.048 200 200 192.44 200 183.115V149.352Z" fill="#DADADA"/>
<path fill-rule="evenodd" clip-rule="evenodd" d="M161.489 99.5405C164.94 99.5405 167.747 102.211 167.747 105.496V124.791H95.165V105.496C95.165 102.211 97.9635 99.5405 101.415 99.5405H161.489Z" fill="#F34144"/>
</svg>
