<svg width="50" height="50" viewBox="0 0 50 50" fill="none" xmlns="http://www.w3.org/2000/svg">
<path d="M33.3332 4.16667H16.6665C15.0089 4.16667 13.4192 4.82515 12.2471 5.99725C11.075 7.16936 10.4165 8.75907 10.4165 10.4167V39.5833C10.4165 41.2409 11.075 42.8307 12.2471 44.0028C13.4192 45.1749 15.0089 45.8333 16.6665 45.8333H33.3332C34.9908 45.8333 36.5805 45.1749 37.7526 44.0028C38.9247 42.8307 39.5832 41.2409 39.5832 39.5833V10.4167C39.5832 8.75907 38.9247 7.16936 37.7526 5.99725C36.5805 4.82515 34.9908 4.16667 33.3332 4.16667ZM35.4165 39.5833C35.4165 40.1359 35.197 40.6658 34.8063 41.0565C34.4156 41.4472 33.8857 41.6667 33.3332 41.6667H16.6665C16.114 41.6667 15.5841 41.4472 15.1934 41.0565C14.8027 40.6658 14.5832 40.1359 14.5832 39.5833V37.5H35.4165V39.5833ZM35.4165 33.3333H14.5832V10.4167C14.5832 9.86414 14.8027 9.33423 15.1934 8.94353C15.5841 8.55283 16.114 8.33334 16.6665 8.33334H33.3332C33.8857 8.33334 34.4156 8.55283 34.8063 8.94353C35.197 9.33423 35.4165 9.86414 35.4165 10.4167V33.3333Z" fill="black"/>
</svg>
