<svg width="50" height="50" viewBox="0 0 50 50" fill="none" xmlns="http://www.w3.org/2000/svg">
<path d="M43.75 29.1666H41.6667V14.5833C41.6667 12.9257 41.0082 11.336 39.8361 10.1639C38.664 8.99179 37.0743 8.33331 35.4167 8.33331H14.5833C12.9257 8.33331 11.336 8.99179 10.1639 10.1639C8.99182 11.336 8.33333 12.9257 8.33333 14.5833V29.1666H6.25C5.69747 29.1666 5.16756 29.3861 4.77686 29.7768C4.38616 30.1675 4.16667 30.6974 4.16667 31.25V35.4166C4.16667 37.0742 4.82515 38.664 5.99725 39.8361C7.16935 41.0082 8.75907 41.6666 10.4167 41.6666H39.5833C41.2409 41.6666 42.8307 41.0082 44.0028 39.8361C45.1749 38.664 45.8333 37.0742 45.8333 35.4166V31.25C45.8333 30.6974 45.6138 30.1675 45.2231 29.7768C44.8324 29.3861 44.3025 29.1666 43.75 29.1666ZM12.5 14.5833C12.5 14.0308 12.7195 13.5009 13.1102 13.1102C13.5009 12.7195 14.0308 12.5 14.5833 12.5H35.4167C35.9692 12.5 36.4991 12.7195 36.8898 13.1102C37.2805 13.5009 37.5 14.0308 37.5 14.5833V29.1666H12.5V14.5833ZM41.6667 35.4166C41.6667 35.9692 41.4472 36.4991 41.0565 36.8898C40.6658 37.2805 40.1359 37.5 39.5833 37.5H10.4167C9.86413 37.5 9.33423 37.2805 8.94353 36.8898C8.55283 36.4991 8.33333 35.9692 8.33333 35.4166V33.3333H41.6667V35.4166Z" fill="black"/>
</svg>
