<svg width="50" height="50" viewBox="0 0 50 50" fill="none" xmlns="http://www.w3.org/2000/svg">
<path d="M43.7498 33.3333H14.5832C14.0306 33.3333 13.5007 33.1138 13.11 32.7231C12.7193 32.3324 12.4998 31.8025 12.4998 31.25C12.4998 30.6975 12.7193 30.1676 13.11 29.7769C13.5007 29.3862 14.0306 29.1667 14.5832 29.1667H36.3332C37.7262 29.1668 39.0793 28.7014 40.1777 27.8446C41.2761 26.9878 42.0567 25.7887 42.3957 24.4375L45.8332 10.9167C45.9112 10.6092 45.918 10.2879 45.853 9.97745C45.788 9.66695 45.653 9.37539 45.4582 9.12501C45.2556 8.8682 44.9953 8.66271 44.6985 8.52517C44.4017 8.38763 44.0767 8.32192 43.7498 8.33334H14.0832C13.6534 7.11761 12.858 6.06458 11.8062 5.31863C10.7544 4.57267 9.49764 4.1703 8.20817 4.16667H6.24984C5.6973 4.16667 5.1674 4.38617 4.7767 4.77687C4.386 5.16757 4.1665 5.69747 4.1665 6.25001C4.1665 6.80254 4.386 7.33244 4.7767 7.72314C5.1674 8.11384 5.6973 8.33334 6.24984 8.33334H8.20817C8.68408 8.31947 9.15037 8.46903 9.52943 8.75712C9.90849 9.0452 10.1774 9.45443 10.2915 9.91667L10.4165 10.9167L14.0207 25C12.3631 25.0746 10.803 25.8046 9.68363 27.0295C8.56427 28.2543 7.97733 29.8737 8.05192 31.5313C8.12651 33.1889 8.85653 34.7489 10.0814 35.8683C11.3062 36.9877 12.9256 37.5746 14.5832 37.5H14.9582C14.6155 38.444 14.5054 39.4567 14.6372 40.4523C14.7689 41.4479 15.1387 42.3971 15.7151 43.2195C16.2915 44.0419 17.0576 44.7133 17.9485 45.1768C18.8394 45.6403 19.8289 45.8823 20.8332 45.8823C21.8374 45.8823 22.8269 45.6403 23.7179 45.1768C24.6088 44.7133 25.3749 44.0419 25.9513 43.2195C26.5277 42.3971 26.8974 41.4479 27.0291 40.4523C27.1609 39.4567 27.0508 38.444 26.7082 37.5H31.6248C31.2822 38.444 31.1721 39.4567 31.3039 40.4523C31.4356 41.4479 31.8053 42.3971 32.3818 43.2195C32.9582 44.0419 33.7242 44.7133 34.6152 45.1768C35.5061 45.6403 36.4956 45.8823 37.4998 45.8823C38.5041 45.8823 39.4936 45.6403 40.3845 45.1768C41.2754 44.7133 42.0415 44.0419 42.6179 43.2195C43.1943 42.3971 43.5641 41.4479 43.6958 40.4523C43.8276 39.4567 43.7175 38.444 43.3748 37.5H43.7498C44.3024 37.5 44.8323 37.2805 45.223 36.8898C45.6137 36.4991 45.8332 35.9692 45.8332 35.4167C45.8332 34.8641 45.6137 34.3342 45.223 33.9435C44.8323 33.5528 44.3024 33.3333 43.7498 33.3333ZM41.0832 12.5L38.354 23.4167C38.2399 23.8789 37.971 24.2881 37.5919 24.5762C37.2129 24.8643 36.7466 25.0139 36.2707 25H18.2915L15.1665 12.5H41.0832ZM20.8332 41.6667C20.4211 41.6667 20.0183 41.5445 19.6757 41.3156C19.3331 41.0866 19.0661 40.7613 18.9084 40.3806C18.7507 39.9999 18.7095 39.581 18.7899 39.1769C18.8703 38.7728 19.0687 38.4016 19.36 38.1102C19.6514 37.8188 20.0226 37.6204 20.4267 37.54C20.8309 37.4596 21.2497 37.5009 21.6304 37.6586C22.0111 37.8163 22.3365 38.0833 22.5654 38.4259C22.7943 38.7685 22.9165 39.1713 22.9165 39.5833C22.9165 40.1359 22.697 40.6658 22.3063 41.0565C21.9156 41.4472 21.3857 41.6667 20.8332 41.6667ZM37.4998 41.6667C37.0878 41.6667 36.685 41.5445 36.3424 41.3156C35.9998 41.0866 35.7328 40.7613 35.5751 40.3806C35.4174 39.9999 35.3761 39.581 35.4565 39.1769C35.5369 38.7728 35.7353 38.4016 36.0267 38.1102C36.3181 37.8188 36.6893 37.6204 37.0934 37.54C37.4975 37.4596 37.9164 37.5009 38.2971 37.6586C38.6778 37.8163 39.0031 38.0833 39.2321 38.4259C39.461 38.7685 39.5832 39.1713 39.5832 39.5833C39.5832 40.1359 39.3637 40.6658 38.973 41.0565C38.5823 41.4472 38.0524 41.6667 37.4998 41.6667Z" fill="black"/>
</svg>
