<svg width="50" height="50" viewBox="0 0 50 50" fill="none" xmlns="http://www.w3.org/2000/svg">
<path d="M16.6665 15.1042C17.5295 15.1042 18.229 15.8037 18.229 16.6667V19.2708H20.8332C21.6961 19.2708 22.3957 19.9704 22.3957 20.8333C22.3957 21.6963 21.6961 22.3958 20.8332 22.3958H18.229V25C18.229 25.8629 17.5295 26.5625 16.6665 26.5625C15.8036 26.5625 15.104 25.8629 15.104 25V22.3958H12.4998C11.6369 22.3958 10.9373 21.6963 10.9373 20.8333C10.9373 19.9704 11.6369 19.2708 12.4998 19.2708H15.104V16.6667C15.104 15.8037 15.8036 15.1042 16.6665 15.1042Z" fill="black"/>
<path d="M35.4165 24.4792C35.4165 23.3286 34.4838 22.3958 33.3332 22.3958C32.1826 22.3958 31.2498 23.3286 31.2498 24.4792V25C31.2498 26.1506 32.1826 27.0833 33.3332 27.0833C34.4838 27.0833 35.4165 26.1506 35.4165 25V24.4792Z" fill="black"/>
<path d="M33.3332 14.5833C34.4838 14.5833 35.4165 15.5161 35.4165 16.6667V17.1875C35.4165 18.3381 34.4838 19.2708 33.3332 19.2708C32.1826 19.2708 31.2498 18.3381 31.2498 17.1875V16.6667C31.2498 15.5161 32.1826 14.5833 33.3332 14.5833Z" fill="black"/>
<path d="M39.5832 20.8333C39.5832 21.9839 38.6504 22.9167 37.4998 22.9167H36.979C35.8284 22.9167 34.8957 21.9839 34.8957 20.8333C34.8957 19.6827 35.8284 18.75 36.979 18.75H37.4998C38.6504 18.75 39.5832 19.6827 39.5832 20.8333Z" fill="black"/>
<path d="M29.6873 22.9167C30.8379 22.9167 31.7707 21.9839 31.7707 20.8333C31.7707 19.6827 30.8379 18.75 29.6873 18.75H29.1665C28.0159 18.75 27.0832 19.6827 27.0832 20.8333C27.0832 21.9839 28.0159 22.9167 29.1665 22.9167H29.6873Z" fill="black"/>
<path fill-rule="evenodd" clip-rule="evenodd" d="M26.5623 6.25C26.5623 5.38706 25.8628 4.6875 24.9998 4.6875C24.1369 4.6875 23.4373 5.38706 23.4373 6.25V9.34766C20.4392 9.38863 17.4423 9.54754 14.4535 9.82439L13.7627 9.88839C8.77999 10.3499 4.94315 14.4876 4.85835 19.491L4.83316 20.9773C4.73461 26.7921 5.20332 32.6026 6.23264 38.3264C6.74297 41.1642 9.21243 43.2292 12.0958 43.2292H12.5563C15.1299 43.2292 17.4619 41.7125 18.5053 39.3598L20.7149 34.378C22.363 30.662 27.6366 30.662 29.2848 34.378L31.4944 39.3598C32.5378 41.7125 34.8697 43.2292 37.4434 43.2292H37.9039C40.7873 43.2292 43.2567 41.1642 43.767 38.3264C44.7964 32.6026 45.2651 26.7921 45.1665 20.9773L45.1413 19.491C45.0565 14.4876 41.2197 10.3499 36.237 9.88839L35.5462 9.82439C32.5574 9.54754 29.5605 9.38863 26.5623 9.34766V6.25ZM14.7418 12.9361C21.5659 12.304 28.4338 12.304 35.2579 12.9361L35.9488 13.0001C39.3443 13.3146 41.959 16.1343 42.0168 19.5439L42.042 21.0303C42.1371 26.6419 41.6848 32.2494 40.6914 37.7733C40.4488 39.1224 39.2747 40.1042 37.9039 40.1042H37.4434C36.1056 40.1042 34.8934 39.3158 34.351 38.0928L32.1414 33.111C29.3945 26.9176 20.6052 26.9176 17.8583 33.111L15.6487 38.0928C15.1063 39.3158 13.8941 40.1042 12.5563 40.1042H12.0958C10.725 40.1042 9.55092 39.1224 9.3083 37.7733C8.31494 32.2494 7.8626 26.6419 7.95771 21.0303L7.9829 19.5439C8.04069 16.1343 10.6554 13.3146 14.0509 13.0001L14.7418 12.9361Z" fill="black"/>
</svg>
