<svg width="200" height="200" viewBox="0 0 200 200" fill="none" xmlns="http://www.w3.org/2000/svg">
<rect x="12.5" y="12.5" width="175" height="175" rx="6" fill="url(#paint0_radial_151_240)"/>
<rect x="12.5" y="12.5" width="175" height="175" rx="6" fill="url(#paint1_radial_151_240)"/>
<rect x="12.5" y="12.5" width="175" height="175" rx="6" fill="url(#paint2_radial_151_240)"/>
<path d="M143.75 65.625C143.75 70.8027 139.553 75 134.375 75C129.197 75 125 70.8027 125 65.625C125 60.4473 129.197 56.25 134.375 56.25C139.553 56.25 143.75 60.4473 143.75 65.625Z" fill="white"/>
<path fill-rule="evenodd" clip-rule="evenodd" d="M100 131.25C117.259 131.25 131.25 117.259 131.25 100C131.25 82.7411 117.259 68.75 100 68.75C82.7411 68.75 68.75 82.7411 68.75 100C68.75 117.259 82.7411 131.25 100 131.25ZM100 118.75C110.355 118.75 118.75 110.355 118.75 100C118.75 89.6447 110.355 81.25 100 81.25C89.6447 81.25 81.25 89.6447 81.25 100C81.25 110.355 89.6447 118.75 100 118.75Z" fill="white"/>
<path fill-rule="evenodd" clip-rule="evenodd" d="M37.5 97.5C37.5 76.498 37.5 65.997 41.5873 57.9754C45.1825 50.9193 50.9193 45.1825 57.9754 41.5873C65.997 37.5 76.498 37.5 97.5 37.5H102.5C123.502 37.5 134.003 37.5 142.025 41.5873C149.081 45.1825 154.817 50.9193 158.413 57.9754C162.5 65.997 162.5 76.498 162.5 97.5V102.5C162.5 123.502 162.5 134.003 158.413 142.025C154.817 149.081 149.081 154.817 142.025 158.413C134.003 162.5 123.502 162.5 102.5 162.5H97.5C76.498 162.5 65.997 162.5 57.9754 158.413C50.9193 154.817 45.1825 149.081 41.5873 142.025C37.5 134.003 37.5 123.502 37.5 102.5V97.5ZM97.5 50H102.5C113.207 50 120.486 50.0097 126.112 50.4694C131.592 50.9171 134.395 51.7287 136.35 52.7248C141.054 55.1217 144.878 58.9462 147.275 63.6502C148.271 65.6052 149.083 68.4078 149.531 73.888C149.99 79.5141 150 86.7928 150 97.5V102.5C150 113.207 149.99 120.486 149.531 126.112C149.083 131.592 148.271 134.395 147.275 136.35C144.878 141.054 141.054 144.878 136.35 147.275C134.395 148.271 131.592 149.083 126.112 149.531C120.486 149.99 113.207 150 102.5 150H97.5C86.7928 150 79.5141 149.99 73.888 149.531C68.4078 149.083 65.6052 148.271 63.6502 147.275C58.9462 144.878 55.1217 141.054 52.7248 136.35C51.7287 134.395 50.9171 131.592 50.4694 126.112C50.0097 120.486 50 113.207 50 102.5V97.5C50 86.7928 50.0097 79.5141 50.4694 73.888C50.9171 68.4078 51.7287 65.6052 52.7248 63.6502C55.1217 58.9462 58.9462 55.1217 63.6502 52.7248C65.6052 51.7287 68.4078 50.9171 73.888 50.4694C79.5141 50.0097 86.7928 50 97.5 50Z" fill="white"/>
<defs>
<radialGradient id="paint0_radial_151_240" cx="0" cy="0" r="1" gradientUnits="userSpaceOnUse" gradientTransform="translate(75 143.75) rotate(-55.3758) scale(159.498)">
<stop stop-color="#B13589"/>
<stop offset="0.79309" stop-color="#C62F94"/>
<stop offset="1" stop-color="#8A3AC8"/>
</radialGradient>
<radialGradient id="paint1_radial_151_240" cx="0" cy="0" r="1" gradientUnits="userSpaceOnUse" gradientTransform="translate(68.75 193.75) rotate(-65.1363) scale(141.214)">
<stop stop-color="#E0E8B7"/>
<stop offset="0.444662" stop-color="#FB8A2E"/>
<stop offset="0.71474" stop-color="#E2425C"/>
<stop offset="1" stop-color="#E2425C" stop-opacity="0"/>
</radialGradient>
<radialGradient id="paint2_radial_151_240" cx="0" cy="0" r="1" gradientUnits="userSpaceOnUse" gradientTransform="translate(3.12501 18.75) rotate(-8.1301) scale(243.068 51.9897)">
<stop offset="0.156701" stop-color="#406ADC"/>
<stop offset="0.467799" stop-color="#6A45BE"/>
<stop offset="1" stop-color="#6A45BE" stop-opacity="0"/>
</radialGradient>
</defs>
</svg>
