<svg width="200" height="200" viewBox="0 0 200 200" fill="none" xmlns="http://www.w3.org/2000/svg">
<path fill-rule="evenodd" clip-rule="evenodd" d="M103.03 200C156.585 200 200 156.585 200 103.03C200 49.4754 156.585 6.06055 103.03 6.06055C49.4754 6.06055 6.06055 49.4754 6.06055 103.03C6.06055 156.585 49.4754 200 103.03 200Z" fill="#CED1D4"/>
<path fill-rule="evenodd" clip-rule="evenodd" d="M96.9697 193.939C150.525 193.939 193.939 150.525 193.939 96.9697C193.939 43.4148 150.525 0 96.9697 0C43.4148 0 0 43.4148 0 96.9697C0 150.525 43.4148 193.939 96.9697 193.939Z" fill="#060708"/>
<path fill-rule="evenodd" clip-rule="evenodd" d="M96.9678 187.882C147.176 187.882 187.877 147.181 187.877 96.9727C187.877 46.7649 147.176 6.06348 96.9678 6.06348C46.76 6.06348 6.05859 46.7649 6.05859 96.9727C6.05859 147.181 46.76 187.882 96.9678 187.882Z" fill="#323337"/>
<path d="M142 107H137V72C137 68.0218 135.42 64.2064 132.607 61.3934C129.794 58.5804 125.978 57 122 57H72C68.0218 57 64.2064 58.5804 61.3934 61.3934C58.5804 64.2064 57 68.0218 57 72V107H52C50.6739 107 49.4021 107.527 48.4645 108.464C47.5268 109.402 47 110.674 47 112V122C47 125.978 48.5804 129.794 51.3934 132.607C54.2064 135.42 58.0218 137 62 137H132C135.978 137 139.794 135.42 142.607 132.607C145.42 129.794 147 125.978 147 122V112C147 110.674 146.473 109.402 145.536 108.464C144.598 107.527 143.326 107 142 107ZM67 72C67 70.6739 67.5268 69.4021 68.4645 68.4645C69.4021 67.5268 70.6739 67 72 67H122C123.326 67 124.598 67.5268 125.536 68.4645C126.473 69.4021 127 70.6739 127 72V107H67V72ZM137 122C137 123.326 136.473 124.598 135.536 125.536C134.598 126.473 133.326 127 132 127H62C60.6739 127 59.4021 126.473 58.4645 125.536C57.5268 124.598 57 123.326 57 122V117H137V122Z" fill="white"/>
<path fill-rule="evenodd" clip-rule="evenodd" d="M54.101 33.7784C56.6118 33.7784 58.6473 31.7436 58.6473 29.2335C58.6473 26.7234 56.6118 24.6886 54.101 24.6886C51.5901 24.6886 49.5547 26.7234 49.5547 29.2335C49.5547 31.7436 51.5901 33.7784 54.101 33.7784Z" fill="white"/>
<path d="M43.3462 34.8877C47.7099 35.1331 48.8008 40.2574 43.8917 44.9271C37.2856 51.3422 32.3462 59.3543 28.922 67.7785C28.922 67.7785 27.8614 69.7573 26.1038 70.3058C22.6493 71.3937 19.1341 67.7967 20.9826 63.1058C25.2553 52.5089 31.7099 42.5937 40.5281 35.7695C41.3462 35.1877 41.8311 34.8755 43.3462 34.8877Z" fill="white"/>
</svg>
