<svg width="201" height="201" viewBox="0 0 201 201" fill="none" xmlns="http://www.w3.org/2000/svg">
<path fill-rule="evenodd" clip-rule="evenodd" d="M103.146 200.103C156.701 200.103 200.116 156.688 200.116 103.133C200.116 49.5781 156.701 6.16333 103.146 6.16333C49.5913 6.16333 6.17651 49.5781 6.17651 103.133C6.17651 156.688 49.5913 200.103 103.146 200.103Z" fill="#E2ECCA"/>
<path fill-rule="evenodd" clip-rule="evenodd" d="M97.0857 194.042C150.641 194.042 194.055 150.627 194.055 97.0725C194.055 43.5176 150.641 0.102783 97.0857 0.102783C43.5308 0.102783 0.115967 43.5176 0.115967 97.0725C0.115967 150.627 43.5308 194.042 97.0857 194.042Z" fill="#466301"/>
<path fill-rule="evenodd" clip-rule="evenodd" d="M97.0843 187.985C147.292 187.985 187.994 147.283 187.994 97.0755C187.994 46.8677 147.292 6.16626 97.0843 6.16626C46.8765 6.16626 6.17505 46.8677 6.17505 97.0755C6.17505 147.283 46.8765 187.985 97.0843 187.985Z" fill="#7EB900"/>
<path fill-rule="evenodd" clip-rule="evenodd" d="M84.5257 149.887C71.4045 146.532 56.7742 137.135 56.7742 132.063C56.7742 125.272 71.6226 106.263 87.9014 92.2202L97.059 84.3171L101.165 87.1777C107.617 91.6717 128.259 113.053 132.877 120.026C140.371 131.338 140.038 133.86 130.095 141.014C118.107 149.644 98.5044 153.459 84.5257 149.887ZM50.5593 126.521C42.0048 113.954 39.2563 93.2632 44.3563 79.8299C47.5169 71.5117 54.9654 60.1814 59.023 57.5238C61.9533 55.6026 62.5169 55.6238 66.5472 57.7935C68.9442 59.0844 73.9472 62.8662 77.6654 66.1965L84.4229 72.248L77.1866 81.2147C62.6411 99.2268 51.4381 121.709 53.6078 128.536C54.6987 131.981 53.9321 131.475 50.5593 126.521ZM141.077 126.129C140.932 115.62 132.707 99.7414 117.82 81.2263L110.623 72.2748L117.077 66.3536C120.626 63.096 125.668 59.2839 128.283 57.8839L133.038 55.3385L138.304 60.4718C141.198 63.296 145.429 69.3718 147.701 73.9778C151.259 81.1899 151.892 83.993 152.277 94.2445C152.789 107.993 150.698 116.869 144.898 125.529L141.147 131.138L141.077 126.129V126.129ZM91.0717 57.7841C88.2384 56.1083 82.2899 53.7538 77.8505 52.5507C73.4111 51.3507 70.0414 49.9447 70.3596 49.4265C70.6808 48.9114 75.0475 47.1689 80.0687 45.5538C93.2111 41.3265 108.763 42.2598 120.353 47.9659C124.863 50.1841 127.335 51.7053 125.85 51.3447C122.538 50.5417 108.108 54.9113 102.332 58.4689C97.2626 61.5932 97.5293 61.6083 91.0717 57.7841Z" fill="white"/>
<g opacity="0.5">
<path fill-rule="evenodd" clip-rule="evenodd" d="M54.2177 33.881C56.7285 33.881 58.764 31.8462 58.764 29.3361C58.764 26.8261 56.7285 24.7913 54.2177 24.7913C51.7068 24.7913 49.6714 26.8261 49.6714 29.3361C49.6714 31.8462 51.7068 33.881 54.2177 33.881Z" fill="white"/>
<path d="M43.4622 34.9901C47.8259 35.2355 48.9168 40.3598 44.0077 45.0295C37.4016 51.4446 32.4622 59.4628 29.038 67.8779C29.038 67.8779 27.9774 69.8597 26.2501 70.4052C22.7653 71.4991 19.2501 67.9113 21.0986 63.2082C25.3713 52.6052 31.8259 42.6961 40.6441 35.8719C41.4622 35.2901 41.9471 34.978 43.4622 34.9901Z" fill="white"/>
</g>
</svg>
