<svg width="100" height="100" viewBox="0 0 100 100" fill="none" xmlns="http://www.w3.org/2000/svg">
<rect x="6.25" y="6.25" width="87.5" height="87.5" rx="6" fill="url(#paint0_radial_151_240)"/>
<rect x="6.25" y="6.25" width="87.5" height="87.5" rx="6" fill="url(#paint1_radial_151_240)"/>
<rect x="6.25" y="6.25" width="87.5" height="87.5" rx="6" fill="url(#paint2_radial_151_240)"/>
<path d="M71.875 32.8125C71.875 35.4013 69.7763 37.5 67.1875 37.5C64.5987 37.5 62.5 35.4013 62.5 32.8125C62.5 30.2237 64.5987 28.125 67.1875 28.125C69.7763 28.125 71.875 30.2237 71.875 32.8125Z" fill="white"/>
<path fill-rule="evenodd" clip-rule="evenodd" d="M50 65.625C58.6294 65.625 65.625 58.6294 65.625 50C65.625 41.3705 58.6294 34.375 50 34.375C41.3705 34.375 34.375 41.3705 34.375 50C34.375 58.6294 41.3705 65.625 50 65.625ZM50 59.375C55.1777 59.375 59.375 55.1777 59.375 50C59.375 44.8223 55.1777 40.625 50 40.625C44.8223 40.625 40.625 44.8223 40.625 50C40.625 55.1777 44.8223 59.375 50 59.375Z" fill="white"/>
<path fill-rule="evenodd" clip-rule="evenodd" d="M18.75 48.75C18.75 38.249 18.75 32.9985 20.7936 28.9877C22.5913 25.4596 25.4596 22.5913 28.9877 20.7936C32.9985 18.75 38.249 18.75 48.75 18.75H51.25C61.751 18.75 67.0015 18.75 71.0123 20.7936C74.5404 22.5913 77.4087 25.4596 79.2064 28.9877C81.25 32.9985 81.25 38.249 81.25 48.75V51.25C81.25 61.751 81.25 67.0015 79.2064 71.0123C77.4087 74.5404 74.5404 77.4087 71.0123 79.2064C67.0015 81.25 61.751 81.25 51.25 81.25H48.75C38.249 81.25 32.9985 81.25 28.9877 79.2064C25.4596 77.4087 22.5913 74.5404 20.7936 71.0123C18.75 67.0015 18.75 61.751 18.75 51.25V48.75ZM48.75 25H51.25C56.6036 25 60.243 25.0049 63.056 25.2347C65.7961 25.4586 67.1974 25.8644 68.1749 26.3624C70.5269 27.5608 72.4392 29.4731 73.6376 31.8251C74.1356 32.8026 74.5414 34.2039 74.7653 36.944C74.9951 39.757 75 43.3964 75 48.75V51.25C75 56.6036 74.9951 60.243 74.7653 63.056C74.5414 65.7961 74.1356 67.1974 73.6376 68.1749C72.4392 70.5269 70.5269 72.4392 68.1749 73.6376C67.1974 74.1356 65.7961 74.5414 63.056 74.7653C60.243 74.9951 56.6036 75 51.25 75H48.75C43.3964 75 39.757 74.9951 36.944 74.7653C34.2039 74.5414 32.8026 74.1356 31.8251 73.6376C29.4731 72.4392 27.5608 70.5269 26.3624 68.1749C25.8644 67.1974 25.4586 65.7961 25.2347 63.056C25.0049 60.243 25 56.6036 25 51.25V48.75C25 43.3964 25.0049 39.757 25.2347 36.944C25.4586 34.2039 25.8644 32.8026 26.3624 31.8251C27.5608 29.4731 29.4731 27.5608 31.8251 26.3624C32.8026 25.8644 34.2039 25.4586 36.944 25.2347C39.757 25.0049 43.3964 25 48.75 25Z" fill="white"/>
<defs>
<radialGradient id="paint0_radial_151_240" cx="0" cy="0" r="1" gradientUnits="userSpaceOnUse" gradientTransform="translate(37.5 71.875) rotate(-55.3758) scale(79.7488)">
<stop stop-color="#B13589"/>
<stop offset="0.79309" stop-color="#C62F94"/>
<stop offset="1" stop-color="#8A3AC8"/>
</radialGradient>
<radialGradient id="paint1_radial_151_240" cx="0" cy="0" r="1" gradientUnits="userSpaceOnUse" gradientTransform="translate(34.375 96.875) rotate(-65.1363) scale(70.607)">
<stop stop-color="#E0E8B7"/>
<stop offset="0.444662" stop-color="#FB8A2E"/>
<stop offset="0.71474" stop-color="#E2425C"/>
<stop offset="1" stop-color="#E2425C" stop-opacity="0"/>
</radialGradient>
<radialGradient id="paint2_radial_151_240" cx="0" cy="0" r="1" gradientUnits="userSpaceOnUse" gradientTransform="translate(1.56251 9.375) rotate(-8.1301) scale(121.534 25.9949)">
<stop offset="0.156701" stop-color="#406ADC"/>
<stop offset="0.467799" stop-color="#6A45BE"/>
<stop offset="1" stop-color="#6A45BE" stop-opacity="0"/>
</radialGradient>
</defs>
</svg>
