<svg width="100" height="100" viewBox="0 0 100 100" fill="none" xmlns="http://www.w3.org/2000/svg">
<path fill-rule="evenodd" clip-rule="evenodd" d="M51.5151 100C78.2926 100 100 78.2926 100 51.5151C100 24.7377 78.2926 3.03027 51.5151 3.03027C24.7377 3.03027 3.03027 24.7377 3.03027 51.5151C3.03027 78.2926 24.7377 100 51.5151 100Z" fill="#C9D7E9"/>
<path fill-rule="evenodd" clip-rule="evenodd" d="M48.4849 96.9697C75.2623 96.9697 96.9697 75.2623 96.9697 48.4849C96.9697 21.7074 75.2623 0 48.4849 0C21.7074 0 0 21.7074 0 48.4849C0 75.2623 21.7074 96.9697 48.4849 96.9697Z" fill="#012657"/>
<path fill-rule="evenodd" clip-rule="evenodd" d="M48.4842 93.941C73.5881 93.941 93.9388 73.5903 93.9388 48.4864C93.9388 23.3825 73.5881 3.03174 48.4842 3.03174C23.3803 3.03174 3.02954 23.3825 3.02954 48.4864C3.02954 73.5903 23.3803 93.941 48.4842 93.941Z" fill="#003D91"/>
<path fill-rule="evenodd" clip-rule="evenodd" d="M42.4309 27.2743L42.4309 66.8561L50.8794 69.6985V36.4985C50.8794 34.944 51.537 33.9046 52.5854 34.2652C53.9673 34.6697 54.237 36.1046 54.237 37.6591V50.9182C59.4991 53.6106 63.643 50.9167 63.643 43.797C63.643 36.4985 61.2188 33.2591 54.0642 30.6561C51.2536 29.6516 46.0203 27.9788 42.4309 27.2743" fill="white"/>
<path fill-rule="evenodd" clip-rule="evenodd" d="M53.0369 64.6758L66.8111 59.7C68.3687 59.1349 68.6111 58.3349 67.3444 57.9136C66.0747 57.4924 63.7747 57.6152 62.2126 58.1818L53.0369 61.4561V56.2409L53.5657 56.0606C53.5657 56.0606 56.2187 55.1106 59.9475 54.694C63.6762 54.2758 68.2429 54.747 71.8262 56.1243C75.8671 57.4212 76.3217 59.3258 75.2974 60.6379C74.2687 61.95 71.752 62.8879 71.752 62.8879L53.0369 69.6985V64.6758" fill="white"/>
<path fill-rule="evenodd" clip-rule="evenodd" d="M25.5432 62.1531C21.0008 60.9349 20.2432 58.394 22.3098 56.9318C24.228 55.5788 27.4765 54.5576 27.4765 54.5576L40.9159 50.0015V55.194L31.2462 58.4985C29.5356 59.0864 29.275 59.9091 30.6613 60.3455C32.0523 60.7803 34.5674 60.6561 36.2765 60.0682L40.9159 58.4667V63.1137C40.6204 63.1652 40.2916 63.2137 39.9901 63.2621C35.3477 63.9864 30.4083 63.6864 25.5432 62.1531" fill="white"/>
<g opacity="0.5">
<path fill-rule="evenodd" clip-rule="evenodd" d="M27.0505 16.8891C28.3059 16.8891 29.3236 15.8717 29.3236 14.6167C29.3236 13.3616 28.3059 12.3442 27.0505 12.3442C25.7951 12.3442 24.7773 13.3616 24.7773 14.6167C24.7773 15.8717 25.7951 16.8891 27.0505 16.8891Z" fill="white"/>
<path d="M21.6731 17.4438C23.8549 17.5665 24.4004 20.1286 21.9458 22.4635C18.6428 25.671 16.1731 29.6771 14.461 33.8892C14.461 33.8892 13.9307 34.8786 13.0519 35.1528C11.3246 35.6968 9.56707 33.8983 10.4913 31.5528C12.6277 26.2544 15.8549 21.2968 20.264 17.8847C20.6731 17.5938 20.9155 17.4377 21.6731 17.4438Z" fill="white"/>
</g>
</svg>
