<svg width="100" height="63" viewBox="0 0 100 63" fill="none" xmlns="http://www.w3.org/2000/svg">
<path fill-rule="evenodd" clip-rule="evenodd" d="M9.58013 1.96069H90.6078C94.6755 1.96069 97.9745 5.25211 97.9745 9.31371V53.4327C97.9745 57.4928 94.6762 60.7842 90.6078 60.7842H9.58013C5.51237 60.7842 2.21411 57.4921 2.21411 53.4327V9.31371C2.21411 5.25144 5.51237 1.96069 9.58013 1.96069Z" fill="white" stroke="#E1E1E1" stroke-miterlimit="10"/>
<path fill-rule="evenodd" clip-rule="evenodd" d="M66.0623 21.4296C65.8674 22.9994 65.6096 24.5068 65.2888 25.9521C63.9447 25.5151 62.3941 24.8133 60.2039 24.9598C58.8974 25.048 57.3516 25.5486 57.3317 26.7245C57.3078 28.0282 59.4535 28.8031 60.6465 29.3721C62.7984 30.401 65.1082 31.7704 65.2888 34.559C65.4263 36.7019 64.431 38.5653 63.2998 39.6343C60.2874 42.4757 53.6033 42.7766 49.0417 40.9586C49.3263 39.4394 49.5841 37.8949 49.8159 36.3245C51.5821 37.0741 54.0074 38.0864 56.6676 37.7594C57.879 37.6096 59.3633 36.9045 59.3208 35.6637C59.2674 34.1486 56.4365 33.2484 55.0096 32.4639C53.3516 31.5513 51.4651 30.0351 51.3625 27.7196C51.2927 26.1766 51.8953 24.7319 52.6888 23.7476C55.0437 20.8243 61.0978 19.7859 66.0623 21.4296Z" fill="#3A57A6"/>
<path fill-rule="evenodd" clip-rule="evenodd" d="M39.7229 41.7753L43.1886 21.0308H48.8604L45.3947 41.7753H39.7229Z" fill="#3A57A6"/>
<path fill-rule="evenodd" clip-rule="evenodd" d="M34.9814 20.9883C33.0265 25.5821 31.3588 30.4638 29.3451 34.9993L28.7541 32.2777C28.7522 32.2681 28.7467 32.2552 28.7445 32.2456L28.8445 32.7291C28.4074 31.297 27.6631 29.946 26.7123 28.7079C26.6871 28.6758 26.6625 28.6436 26.6373 28.6115C26.4704 28.3987 26.2937 28.1923 26.1153 27.985C26.0065 27.8591 25.8965 27.734 25.7835 27.6081C24.4108 26.1095 22.7459 24.8154 20.988 23.7893L26.0298 41.7293H32.1084C34.9698 34.7293 38.058 27.957 40.95 20.9875C38.9602 20.9883 36.9712 20.9883 34.9814 20.9883Z" fill="#3A57A6"/>
<path fill-rule="evenodd" clip-rule="evenodd" d="M24.2767 20.9917H15.0051V21.4433C20.3424 22.4823 27.0804 26.9515 28.8446 32.7299L26.8548 23.0684C26.5826 21.5786 25.5436 20.9917 24.2767 20.9917Z" fill="#F7971D"/>
<path fill-rule="evenodd" clip-rule="evenodd" d="M85.1824 41.8397C83.4512 41.8397 81.7192 41.8397 79.9881 41.8397C79.6516 40.8513 79.5579 39.6207 79.2145 38.6399C76.8567 38.6399 74.4982 38.6399 72.1406 38.6399L70.8149 41.8397C68.8245 41.8397 66.8353 41.8397 64.8457 41.8397L72.5824 24.0775C72.9243 23.2977 73.5386 22.234 73.7979 21.7601C74.1918 21.0424 75.7124 20.9885 76.3575 20.9885H80.6494L85.1824 41.8397ZM76.5763 26.7348L73.6877 34.4475H78.3581L76.5763 26.7348Z" fill="#3A57A6"/>
</svg>
